<svg width="24" height="24" viewBox="0 0 24 24" fill="currentColor" xmlns="http://www.w3.org/2000/svg">
<path d="M21.785 1H2.21425C1.5441 1 1 1.54301 1 2.21425V21.785C1 22.4563 1.5441 23 2.21425 23H12.7506V14.4803H9.88375V11.1596H12.7506V8.7108C12.7506 5.86969 14.4854 4.32181 17.0204 4.32181C18.2357 4.32181 19.2779 4.41273 19.5818 4.45222V7.42192L17.8235 7.42264C16.4451 7.42264 16.1792 8.07795 16.1792 9.03899V11.1585H19.4677L19.0377 14.4789H16.1789V22.9989H21.7847C22.4555 22.9989 23 22.4545 23 21.785V2.21353C22.9996 1.54301 22.4559 1 21.785 1Z" fill="currentColor"/>
</svg>
