<svg width="24" height="24" viewBox="0 0 24 24" fill="currentColor" xmlns="http://www.w3.org/2000/svg">
<path d="M21.372 1H2.62983C1.72966 1 1 1.70859 1 2.57756V21.427C1 22.2933 1.72966 23 2.62983 23H21.3711C22.2722 23 23 22.2933 23 21.427V2.57756C23 1.70859 22.2721 1 21.372 1ZM7.67148 19.4149H4.3486V9.48465H7.67152V19.4149H7.67148ZM6.00774 8.12982H5.98574C4.87016 8.12982 4.14873 7.36165 4.14873 6.41197C4.14873 5.4357 4.89215 4.69413 6.02881 4.69413C7.16639 4.69413 7.86582 5.4357 7.88689 6.41197C7.88781 7.36165 7.16731 8.12982 6.00774 8.12982ZM19.6514 19.4149H16.3349V14.1037C16.3349 12.7691 15.8473 11.8515 14.6446 11.8515C13.7215 11.8515 13.1816 12.4693 12.9442 13.0688C12.8571 13.2723 12.8342 13.5702 12.8342 13.8691V19.4149H9.50941C9.50941 19.4149 9.55155 10.4141 9.50941 9.48461H12.8342V10.8926C13.2705 10.217 14.0607 9.24996 15.8252 9.24996C18.0142 9.24996 19.6514 10.6699 19.6514 13.7205V19.4149ZM12.814 10.9247C12.8167 10.9147 12.8213 10.9046 12.8332 10.8936V10.9247H12.814Z" fill="currentColor"/>
</svg>
