<svg width="173" height="13" viewBox="0 0 173 13" fill="none" xmlns="http://www.w3.org/2000/svg">
<path fill-rule="evenodd" clip-rule="evenodd" d="M61.656 8.95308C61.6386 11.1957 59.848 12.7603 57.2403 12.7603C55.2933 12.7603 53.6243 11.9432 52.6682 10.5525L54.7891 8.76185C55.3802 9.64846 56.4406 10.17 57.3446 10.17C58.266 10.17 58.8397 9.73538 58.8397 9.14431C58.8397 8.51846 58.3529 8.08385 57.1186 7.66662L56.2494 7.37108C54.2502 6.69308 53.1376 5.49354 53.1376 3.80723C53.1376 1.40815 54.9282 0 57.3968 0C58.8919 0 60.2305 0.469385 61.3779 1.70369L59.5699 3.616C58.9962 2.92062 58.2139 2.59031 57.4316 2.59031C56.684 2.59031 55.9365 2.88585 55.9365 3.52908C55.9365 4.18969 56.545 4.48523 57.8488 4.95462L58.718 5.26754C60.5086 5.91077 61.6734 7.09292 61.656 8.95308ZM2.76415 12.5517H0V0.208616H2.76415V12.5517ZM80.7821 12.5517H83.5462V0.208616H80.7821V12.5517ZM114.449 10.9349C113.354 12.1692 111.389 12.7603 109.39 12.7603C105.548 12.7603 102.68 9.99615 102.68 6.38015C102.68 2.86846 105.357 0 109.181 0C111.372 0 113.058 0.799692 114.24 2.10354L112.293 3.99846C111.598 3.25092 110.59 2.67723 109.181 2.67723C106.939 2.67723 105.461 4.38092 105.461 6.38015C105.461 8.48369 106.939 10.0831 109.355 10.0831C110.329 10.0831 111.233 9.90923 111.754 9.492V7.66662H109.338V5.07631H114.449V10.9349ZM133.828 12.5517H136.592V7.66662H141.564V12.5517H144.328V0.208616H141.564V5.04154H136.592V0.208616H133.828V12.5517ZM169.152 12.5517H166.37V2.85108H163.223V0.208616H172.333V2.85108H169.152V12.5517ZM25.3242 5.75C25.3242 4.16218 26.6114 2.875 28.1992 2.875C29.787 2.875 31.0742 4.16218 31.0742 5.75V12.5H33.8242V5.75C33.8242 2.6434 31.3058 0.125 28.1992 0.125C25.0926 0.125 22.5742 2.6434 22.5742 5.75V12.5H25.3242V5.75Z" fill="currentColor"/>
</svg>
