<svg width="26" height="25" viewBox="0 0 26 25" fill="currentColor" xmlns="http://www.w3.org/2000/svg">
<path d="M12.4654 9.33007L16.292 3.81218C16.8097 3.06583 17.6315 2.59453 18.5278 2.51544C18.5098 2.32524 18.4526 2.13585 18.3501 1.95989C17.9716 1.3103 17.1382 1.09041 16.4886 1.46889L15.5742 2.00161C15.7883 1.59919 15.7969 1.0991 15.5505 0.676274C15.172 0.0266886 14.3386 -0.193206 13.6889 0.185272L5.50341 4.95378L6.40824 2.65432C6.68359 1.95464 6.33956 1.16425 5.63987 0.8892C4.94029 0.613851 4.15 0.957886 3.87475 1.65747C3.87475 1.65747 2.12175 6.07932 1.55256 7.55919C0.98742 9.02846 0.611467 10.1103 1.32368 11.3329L2.96698 14.1536C3.80647 15.5945 5.49785 16.2367 7.0353 15.8158L6.73197 10.9364C6.62753 9.25694 7.90206 7.81262 9.58193 7.70828C10.8066 7.63202 11.9188 8.29443 12.4654 9.33007Z" fill="white"/>
<path d="M24.5871 12.0958C24.1395 11.7854 23.5791 11.7456 23.1044 11.9519L24.551 9.86582C25.0325 9.17149 24.86 8.21827 24.1656 7.73686C23.718 7.42636 23.1576 7.38667 22.6828 7.59303L23.5136 6.39507C23.9951 5.70073 23.8226 4.74752 23.1283 4.26601C22.435 3.78511 21.4814 3.95612 20.9993 4.65136L20.3216 5.62861C20.3482 5.11701 20.1191 4.60378 19.6671 4.29035C18.9735 3.80935 18.0201 3.98076 17.5382 4.6757L11.4712 13.4241L11.2989 10.6525C11.2465 9.80925 10.5204 9.16795 9.67709 9.22058C8.83377 9.2729 8.19267 9.99915 8.2452 10.8424C8.2452 10.8424 8.55681 16.179 8.68741 17.9561C8.82004 19.7608 8.94236 21.0013 10.249 21.9073L13.2637 23.998C13.9662 24.4852 14.7705 24.7189 15.5669 24.7189C16.8517 24.7189 18.1163 24.1108 18.9023 22.9774C20.2165 21.0824 23.8194 15.887 24.9723 14.2246C25.4539 13.5305 25.2814 12.5773 24.5871 12.0958Z" fill="white"/>
</svg>
