<svg width="345" height="11" viewBox="0 0 345 11" fill="none" xmlns="http://www.w3.org/2000/svg">
<path d="M0.120117 9.99998V0.199982H1.91212V4.27398H6.30812V0.199982H8.10012V9.99998H6.30812V5.72998H1.91212V9.99998H0.120117Z" fill="black"/>
<path d="M43.6469 10.168C42.6669 10.168 41.8082 9.95332 41.0709 9.52398C40.3429 9.09465 39.7689 8.50198 39.3489 7.74598C38.9382 6.98065 38.7329 6.09865 38.7329 5.09998C38.7329 4.10132 38.9382 3.22398 39.3489 2.46798C39.7689 1.70265 40.3429 1.10532 41.0709 0.675982C41.8082 0.246649 42.6669 0.0319824 43.6469 0.0319824C44.6175 0.0319824 45.4715 0.246649 46.2089 0.675982C46.9462 1.10532 47.5202 1.70265 47.9309 2.46798C48.3415 3.22398 48.5469 4.10132 48.5469 5.09998C48.5469 6.09865 48.3415 6.98065 47.9309 7.74598C47.5202 8.50198 46.9462 9.09465 46.2089 9.52398C45.4715 9.95332 44.6175 10.168 43.6469 10.168ZM43.6469 8.55798C44.5802 8.55798 45.3222 8.24998 45.8729 7.63398C46.4329 7.01798 46.7129 6.17332 46.7129 5.09998C46.7129 4.02665 46.4329 3.18198 45.8729 2.56598C45.3222 1.94998 44.5802 1.64198 43.6469 1.64198C42.7135 1.64198 41.9669 1.94998 41.4069 2.56598C40.8469 3.18198 40.5669 4.02665 40.5669 5.09998C40.5669 6.17332 40.8469 7.01798 41.4069 7.63398C41.9669 8.24998 42.7135 8.55798 43.6469 8.55798Z" fill="black"/>
<path d="M79.1791 9.99998V0.199982H80.9711V8.59998H85.3111V9.99998H79.1791Z" fill="black"/>
<path d="M119.643 10.168C118.663 10.168 117.805 9.95332 117.067 9.52398C116.339 9.09465 115.765 8.50198 115.345 7.74598C114.935 6.98065 114.729 6.09865 114.729 5.09998C114.729 4.10132 114.935 3.22398 115.345 2.46798C115.765 1.70265 116.339 1.10532 117.067 0.675982C117.805 0.246649 118.663 0.0319824 119.643 0.0319824C120.614 0.0319824 121.468 0.246649 122.205 0.675982C122.943 1.10532 123.517 1.70265 123.927 2.46798C124.338 3.22398 124.543 4.10132 124.543 5.09998C124.543 6.09865 124.338 6.98065 123.927 7.74598C123.517 8.50198 122.943 9.09465 122.205 9.52398C121.468 9.95332 120.614 10.168 119.643 10.168ZM119.643 8.55798C120.577 8.55798 121.319 8.24998 121.869 7.63398C122.429 7.01798 122.709 6.17332 122.709 5.09998C122.709 4.02665 122.429 3.18198 121.869 2.56598C121.319 1.94998 120.577 1.64198 119.643 1.64198C118.71 1.64198 117.963 1.94998 117.403 2.56598C116.843 3.18198 116.563 4.02665 116.563 5.09998C116.563 6.17332 116.843 7.01798 117.403 7.63398C117.963 8.24998 118.71 8.55798 119.643 8.55798Z" fill="black"/>
<path d="M158.522 10.168C157.803 10.168 157.168 10.0466 156.618 9.80398C156.067 9.55198 155.633 9.19732 155.316 8.73998C154.998 8.27332 154.835 7.70865 154.826 7.04598H156.716C156.734 7.50332 156.898 7.89065 157.206 8.20798C157.523 8.51598 157.957 8.66998 158.508 8.66998C158.984 8.66998 159.362 8.55798 159.642 8.33398C159.922 8.10065 160.062 7.79265 160.062 7.40998C160.062 7.00865 159.936 6.69598 159.684 6.47198C159.441 6.24798 159.114 6.06598 158.704 5.92598C158.293 5.78598 157.854 5.63665 157.388 5.47798C156.632 5.21665 156.053 4.88065 155.652 4.46998C155.26 4.05932 155.064 3.51332 155.064 2.83198C155.054 2.25332 155.19 1.75865 155.47 1.34798C155.759 0.927982 156.151 0.605982 156.646 0.381982C157.14 0.148649 157.71 0.0319824 158.354 0.0319824C159.007 0.0319824 159.581 0.148649 160.076 0.381982C160.58 0.615315 160.972 0.941982 161.252 1.36198C161.541 1.78198 161.695 2.28132 161.714 2.85998H159.796C159.786 2.51465 159.651 2.21132 159.39 1.94998C159.138 1.67932 158.783 1.54398 158.326 1.54398C157.934 1.53465 157.602 1.63265 157.332 1.83798C157.07 2.03398 156.94 2.32332 156.94 2.70598C156.94 3.03265 157.042 3.29398 157.248 3.48998C157.453 3.67665 157.733 3.83532 158.088 3.96598C158.442 4.09665 158.848 4.23665 159.306 4.38598C159.791 4.55398 160.234 4.74998 160.636 4.97398C161.037 5.19798 161.359 5.49665 161.602 5.86998C161.844 6.23398 161.966 6.70532 161.966 7.28398C161.966 7.79732 161.835 8.27332 161.574 8.71198C161.312 9.15065 160.925 9.50532 160.412 9.77598C159.898 10.0373 159.268 10.168 158.522 10.168Z" fill="black"/>
<path d="M192.579 9.99998V0.199982H198.977V1.64198H194.371V4.32998H198.557V5.72998H194.371V8.55798H198.977V9.99998H192.579Z" fill="black"/>
<path d="M229.723 9.99998V0.199982H233.321C234.105 0.199982 234.749 0.335316 235.253 0.605983C235.766 0.867316 236.149 1.22665 236.401 1.68398C236.653 2.13198 236.779 2.63132 236.779 3.18198C236.779 3.77932 236.62 4.32532 236.303 4.81998C235.995 5.31465 235.51 5.67398 234.847 5.89798L236.877 9.99998H234.819L232.999 6.13598H231.515V9.99998H229.723ZM231.515 4.81998H233.209C233.806 4.81998 234.245 4.67532 234.525 4.38598C234.805 4.09665 234.945 3.71398 234.945 3.23798C234.945 2.77132 234.805 2.39798 234.525 2.11798C234.254 1.83798 233.811 1.69798 233.195 1.69798H231.515V4.81998Z" fill="black"/>
<path d="M267.496 9.99998V0.199982H269.288V9.99998H267.496Z" fill="black"/>
<path d="M300.237 9.99998V0.199982H306.635V1.64198H302.029V4.32998H306.215V5.72998H302.029V8.55798H306.635V9.99998H300.237Z" fill="black"/>
<path d="M340.727 10.168C340.008 10.168 339.373 10.0466 338.823 9.80398C338.272 9.55198 337.838 9.19732 337.521 8.73998C337.203 8.27332 337.04 7.70865 337.031 7.04598H338.921C338.939 7.50332 339.103 7.89065 339.411 8.20798C339.728 8.51598 340.162 8.66998 340.713 8.66998C341.189 8.66998 341.567 8.55798 341.847 8.33398C342.127 8.10065 342.267 7.79265 342.267 7.40998C342.267 7.00865 342.141 6.69598 341.889 6.47198C341.646 6.24798 341.319 6.06598 340.909 5.92598C340.498 5.78598 340.059 5.63665 339.593 5.47798C338.837 5.21665 338.258 4.88065 337.857 4.46998C337.465 4.05932 337.269 3.51332 337.269 2.83198C337.259 2.25332 337.395 1.75865 337.675 1.34798C337.964 0.927982 338.356 0.605982 338.851 0.381982C339.345 0.148649 339.915 0.0319824 340.559 0.0319824C341.212 0.0319824 341.786 0.148649 342.281 0.381982C342.785 0.615315 343.177 0.941982 343.457 1.36198C343.746 1.78198 343.9 2.28132 343.919 2.85998H342.001C341.991 2.51465 341.856 2.21132 341.595 1.94998C341.343 1.67932 340.988 1.54398 340.531 1.54398C340.139 1.53465 339.807 1.63265 339.537 1.83798C339.275 2.03398 339.145 2.32332 339.145 2.70598C339.145 3.03265 339.247 3.29398 339.453 3.48998C339.658 3.67665 339.938 3.83532 340.293 3.96598C340.647 4.09665 341.053 4.23665 341.511 4.38598C341.996 4.55398 342.439 4.74998 342.841 4.97398C343.242 5.19798 343.564 5.49665 343.807 5.86998C344.049 6.23398 344.171 6.70532 344.171 7.28398C344.171 7.79732 344.04 8.27332 343.779 8.71198C343.517 9.15065 343.13 9.50532 342.617 9.77598C342.103 10.0373 341.473 10.168 340.727 10.168Z" fill="black"/>
</svg>
