<svg width="27" height="12" viewBox="0 0 27 10" xmlns="http://www.w3.org/2000/svg">
	<path fill-rule="evenodd" clip-rule="evenodd" d="M21.941 0.155L21.319 0.717C21.188 0.837 21.122 0.999 21.122 1.163C21.122 1.306 21.174 1.45 21.278 1.566C21.287 1.576 21.296 1.584 21.306 1.594L23.416 3.63H0.601C0.269 3.63 0 3.896 0 4.229V5.03C0 5.362 0.269 5.63 0.601 5.63H23.429L21.328 7.657C21.089 7.886 21.081 8.266 21.312 8.505C21.318 8.511 21.324 8.516 21.329 8.521L21.936 9.099C22.168 9.321 22.534 9.321 22.765 9.097L26.66 5.343C27.064 4.952 27.064 4.318 26.66 3.928L22.759 0.168C22.644 0.0560002 22.495 0 22.345 0C22.2 0 22.056 0.0510002 21.941 0.155Z"/>
</svg>