<svg width="33" height="253" viewBox="0 0 33 253" fill="none" xmlns="http://www.w3.org/2000/svg">
<path d="M7 0V22" stroke="#CFCFCF"/>
<path d="M11 26L33 26" stroke="#CFCFCF"/>
<rect x="17" y="36" width="10" height="34" fill="#E9E9E9"/>
<rect x="17" y="80" width="10" height="34" fill="#D9D9D9"/>
<rect x="17" y="194" width="10" height="10" fill="#EFEFEF"/>
<rect x="17" y="204" width="10" height="10" fill="#D9D9D9"/>
<rect x="17" y="214" width="10" height="10" fill="black"/>
<rect x="17" y="224" width="10" height="10" fill="#FDD264"/>
<rect x="17" y="234" width="10" height="10" fill="#88F3E2"/>
<rect x="17" y="124" width="10" height="34" fill="url(#paint0_linear_1404_37862)"/>
<path d="M22 168V174" stroke="#CFCFCF"/>
<path d="M22 178V184" stroke="#CFCFCF"/>
<path d="M30 176H24" stroke="#CFCFCF"/>
<path d="M20 176H14" stroke="#CFCFCF"/>
<circle cx="22" cy="176" r="5" stroke="#CFCFCF"/>
<defs>
<linearGradient id="paint0_linear_1404_37862" x1="22" y1="124" x2="22" y2="158" gradientUnits="userSpaceOnUse">
<stop stop-color="#D9D9D9" stop-opacity="0"/>
<stop offset="1" stop-color="#D9D9D9"/>
</linearGradient>
</defs>
</svg>
