<svg width="162" height="43" viewBox="0 0 324 87" fill="none" xmlns="http://www.w3.org/2000/svg">
<path fill-rule="evenodd" clip-rule="evenodd" d="M57.9716 83.365H36.3399V52.4141H22.298V83.365H0V3.59375H22.298V33.2679H36.3399V3.59375H57.9716V83.365Z" fill="black"/>
<path fill-rule="evenodd" clip-rule="evenodd" d="M157.078 58.8428C165.855 58.8428 172.971 51.7105 172.971 42.91C172.971 34.1118 165.855 26.9784 157.078 26.9784C148.299 26.9784 141.184 34.1118 141.184 42.91C141.184 51.7105 148.299 58.8428 157.078 58.8428ZM136.86 42.91C136.86 31.7178 145.911 22.6436 157.078 22.6436C168.244 22.6436 177.297 31.7178 177.297 42.91C177.297 54.1041 168.244 63.1779 157.078 63.1779C145.911 63.1779 136.86 54.1041 136.86 42.91ZM108.707 42.91C111.208 42.5924 115.379 39.7252 116.848 37.895C116.332 40.1643 116.292 46.7324 116.896 49.0017C115.219 46.414 111.249 43.2288 108.707 42.91ZM94.1714 21.4541C97.3486 21.4541 99.8508 24.5981 99.8508 28.1813C99.8508 31.7645 97.3486 34.9105 94.1714 34.9105H83.2507V21.4541H94.1714ZM94.1315 51.3498C97.3083 51.3498 99.8109 54.4954 99.8109 58.0774C99.8109 61.661 97.3083 64.8054 94.1315 64.8054H83.2108V51.3498H94.1315ZM157.064 83.7454C179.317 83.7368 197.426 65.2034 197.421 42.8943C197.416 20.1148 179.317 2.41923 157.064 2.40236C134.838 2.38629 123.481 18.7868 120.675 25.4066C120.701 15.4691 110.93 3.73934 99.5003 3.7268H62.6758V83.349L97.0087 83.3557C110.851 83.3557 120.701 71.3327 120.717 61.0231C123.877 67.5116 134.838 83.7533 157.064 83.7454Z" fill="black"/>
<path fill-rule="evenodd" clip-rule="evenodd" d="M323.209 0.78125H265.534L294.829 30.0215H323.209V0.78125ZM265.537 57.5408H265.492V30.0206H294.769L322.291 57.5408H294.829V86.7785L265.537 57.5408Z" fill="black"/>
</svg>
