<svg width="177" height="86" viewBox="0 0 177 86" fill="none" xmlns="http://www.w3.org/2000/svg">
<path fill-rule="evenodd" clip-rule="evenodd" d="M24.1227 3.59961C21.0798 6.37012 20.0212 11.1992 20.0212 11.1992C20.0212 11.1992 25.4704 10.1602 28.7204 7.19922C31.9743 4.23926 32.3219 0 32.3219 0C32.3219 0 27.1657 0.830078 24.1227 3.59961ZM18.318 13.7998C15.6696 14.8379 13.6188 19.1992 13.6188 19.1992C13.6188 19.1992 18.4938 19.2275 21.1188 18.2002C23.7477 17.1719 27.4196 13.7998 27.4196 13.7998C27.4196 13.7998 20.9704 12.7627 18.318 13.7998ZM7.22038 29.2002C7.22038 29.2002 3.96256 26.168 4.52116 21.4004C5.07975 16.6318 9.12272 13 9.12272 13C9.12272 13 10.568 16.4375 10.0212 21.0996C9.47428 25.7627 7.22038 29.2002 7.22038 29.2002ZM1.01725 35.1992C1.66959 38.252 5.81803 41.5 5.81803 41.5C5.81803 41.5 6.47038 36.1445 5.81803 33.0996C5.16569 30.0547 2.41959 25.5996 2.41959 25.5996C2.41959 25.5996 0.364907 32.1465 1.01725 35.1992ZM7.91959 53.5C7.91959 53.5 3.12272 51.6377 1.41959 48.6006C-0.28353 45.5625 0.0211573 39.4004 0.0211573 39.4004C0.0211573 39.4004 3.99772 42.2256 5.72038 45.2998C7.44303 48.374 7.91959 53.5 7.91959 53.5ZM17.9196 66.3994C18.943 69.0029 23.9196 71.999 23.9196 71.999C23.9196 71.999 23.7477 66.9639 22.6188 64.0996C21.4899 61.2344 18.5173 58.2998 18.5173 58.2998C18.5173 58.2998 16.8923 63.7969 17.9196 66.3994ZM13.8219 64.3008C13.8219 64.3008 12.3219 60.5078 9.52116 57.9004C6.72038 55.293 2.22038 53.5 2.22038 53.5C2.22038 53.5 1.98991 58.4854 5.11881 61.4004C8.25163 64.3145 13.8219 64.3008 13.8219 64.3008ZM17.3219 12C15.568 15.75 12.1227 18.2998 12.1227 18.2998C12.1227 18.2998 11.5016 12.4102 12.7204 9.7998C13.943 7.18945 20.0212 2.7998 20.0212 2.7998C20.0212 2.7998 19.0758 8.25 17.3219 12ZM8.72038 29.9004C8.72038 29.9004 8.361 25.7432 11.1188 23.4004C13.8766 21.0576 19.318 20.9004 19.318 20.9004C19.318 20.9004 17.8883 24.6191 15.318 26.8008C12.7516 28.9814 8.72038 29.9004 8.72038 29.9004ZM8.22038 34C5.97038 37.4922 7.22038 41.5 7.22038 41.5C7.22038 41.5 10.6579 40.3027 12.7204 37.0996C14.7829 33.8965 14.8219 29.7002 14.8219 29.7002C14.8219 29.7002 10.4704 30.5068 8.22038 34ZM9.31803 53C9.31803 53 7.07584 48.8975 8.31803 44.7998C9.56022 40.7012 13.318 39.7998 13.318 39.7998C13.318 39.7998 14.5837 42.7285 13.318 46.8994C12.0563 51.0713 9.31803 53 9.31803 53ZM11.2165 56.3008C11.3571 59.6416 15.0173 63.7002 15.0173 63.7002C15.0173 63.7002 17.0602 59.9443 16.9196 56.5498C16.7751 53.1562 14.4196 49.4004 14.4196 49.4004C14.4196 49.4004 11.0798 52.959 11.2165 56.3008ZM22.9196 72.7998C22.9196 72.7998 19.2165 69.2041 16.1188 67.7998C13.0212 66.3965 7.91959 66 7.91959 66C7.91959 66 9.66178 70.5684 12.818 72C15.9743 73.4307 22.9196 72.7998 22.9196 72.7998ZM24.7751 73.3984C24.6618 73.5898 24.7282 73.834 24.9196 73.9453C27.736 75.5791 30.2985 76.7256 32.611 77.3848C34.9196 78.042 37.9157 78.4795 41.5954 78.6992C41.818 78.7119 42.0055 78.5439 42.0212 78.3232C42.0329 78.1025 41.8649 77.9131 41.6462 77.9004C38.0173 77.6846 35.0758 77.2549 32.8298 76.6152C30.5876 75.9756 28.0837 74.8555 25.3219 73.2529C25.1305 73.1426 24.8844 73.207 24.7751 73.3984Z" fill="#444444"/>
<path fill-rule="evenodd" clip-rule="evenodd" d="M24.1227 3.59961C21.0798 6.37012 20.0212 11.1992 20.0212 11.1992C20.0212 11.1992 25.4704 10.1602 28.7204 7.19922C31.9743 4.23926 32.3219 0 32.3219 0C32.3219 0 27.1657 0.830078 24.1227 3.59961ZM18.318 13.7998C15.6696 14.8379 13.6188 19.1992 13.6188 19.1992C13.6188 19.1992 18.4938 19.2275 21.1188 18.2002C23.7477 17.1719 27.4196 13.7998 27.4196 13.7998C27.4196 13.7998 20.9704 12.7627 18.318 13.7998ZM7.22038 29.2002C7.22038 29.2002 3.96256 26.168 4.52116 21.4004C5.07975 16.6318 9.12272 13 9.12272 13C9.12272 13 10.568 16.4375 10.0212 21.0996C9.47428 25.7627 7.22038 29.2002 7.22038 29.2002ZM1.01725 35.1992C1.66959 38.252 5.81803 41.5 5.81803 41.5C5.81803 41.5 6.47038 36.1445 5.81803 33.0996C5.16569 30.0547 2.41959 25.5996 2.41959 25.5996C2.41959 25.5996 0.364907 32.1465 1.01725 35.1992ZM7.91959 53.5C7.91959 53.5 3.12272 51.6377 1.41959 48.6006C-0.28353 45.5625 0.0211573 39.4004 0.0211573 39.4004C0.0211573 39.4004 3.99772 42.2256 5.72038 45.2998C7.44303 48.374 7.91959 53.5 7.91959 53.5ZM17.9196 66.3994C18.943 69.0029 23.9196 71.999 23.9196 71.999C23.9196 71.999 23.7477 66.9639 22.6188 64.0996C21.4899 61.2344 18.5173 58.2998 18.5173 58.2998C18.5173 58.2998 16.8923 63.7969 17.9196 66.3994ZM13.8219 64.3008C13.8219 64.3008 12.3219 60.5078 9.52116 57.9004C6.72038 55.293 2.22038 53.5 2.22038 53.5C2.22038 53.5 1.98991 58.4854 5.11881 61.4004C8.25163 64.3145 13.8219 64.3008 13.8219 64.3008ZM17.3219 12C15.568 15.75 12.1227 18.2998 12.1227 18.2998C12.1227 18.2998 11.5016 12.4102 12.7204 9.7998C13.943 7.18945 20.0212 2.7998 20.0212 2.7998C20.0212 2.7998 19.0758 8.25 17.3219 12ZM8.72038 29.9004C8.72038 29.9004 8.361 25.7432 11.1188 23.4004C13.8766 21.0576 19.318 20.9004 19.318 20.9004C19.318 20.9004 17.8883 24.6191 15.318 26.8008C12.7516 28.9814 8.72038 29.9004 8.72038 29.9004ZM8.22038 34C5.97038 37.4922 7.22038 41.5 7.22038 41.5C7.22038 41.5 10.6579 40.3027 12.7204 37.0996C14.7829 33.8965 14.8219 29.7002 14.8219 29.7002C14.8219 29.7002 10.4704 30.5068 8.22038 34ZM9.31803 53C9.31803 53 7.07584 48.8975 8.31803 44.7998C9.56022 40.7012 13.318 39.7998 13.318 39.7998C13.318 39.7998 14.5837 42.7285 13.318 46.8994C12.0563 51.0713 9.31803 53 9.31803 53ZM11.2165 56.3008C11.3571 59.6416 15.0173 63.7002 15.0173 63.7002C15.0173 63.7002 17.0602 59.9443 16.9196 56.5498C16.7751 53.1562 14.4196 49.4004 14.4196 49.4004C14.4196 49.4004 11.0798 52.959 11.2165 56.3008ZM22.9196 72.7998C22.9196 72.7998 19.2165 69.2041 16.1188 67.7998C13.0212 66.3965 7.91959 66 7.91959 66C7.91959 66 9.66178 70.5684 12.818 72C15.9743 73.4307 22.9196 72.7998 22.9196 72.7998ZM24.7751 73.3984C24.6618 73.5898 24.7282 73.834 24.9196 73.9453C27.736 75.5791 30.2985 76.7256 32.611 77.3848C34.9196 78.042 37.9157 78.4795 41.5954 78.6992C41.818 78.7119 42.0055 78.5439 42.0212 78.3232C42.0329 78.1025 41.8649 77.9131 41.6462 77.9004C38.0173 77.6846 35.0758 77.2549 32.8298 76.6152C30.5876 75.9756 28.0837 74.8555 25.3219 73.2529C25.1305 73.1426 24.8844 73.207 24.7751 73.3984Z" transform="translate(176.395) scale(-1 1)" fill="#444444"/>
<path d="M6.90358 13C9.14932 13 10.2746 11.8989 10.2746 10.3341C10.2746 8.96733 9.41494 8.0642 8.32347 7.93864V7.85653C9.37631 7.61023 10.0186 6.94375 10.0186 5.78949C10.0186 4.24886 8.92233 3.10909 6.63312 3.10909H3.00131V13H6.90358ZM4.90898 4.7125H6.58966C7.76324 4.7125 8.14477 5.31136 8.14477 5.99716C8.14477 6.84716 7.57006 7.29631 6.48824 7.29631H4.90898V4.7125ZM8.4104 10.1216C8.4104 10.8895 7.94193 11.3966 6.78767 11.3966H4.90898V8.68239H6.86011C7.9033 8.68239 8.4104 9.34403 8.4104 10.1216ZM18.1154 11.3966H13.5949V8.85142H17.473V7.25284H13.5949V4.7125H18.0912V3.10909H11.6872V13H18.1154V11.3966ZM24.8852 5.91989H26.7011C26.6673 4.14744 25.2426 2.97386 23.1852 2.97386C21.1375 2.97386 19.6065 4.08949 19.6065 5.75085C19.6065 7.17557 20.7463 8.07386 22.3545 8.55682L22.8761 8.70653C24.3394 9.15568 24.8997 9.56619 24.8997 10.2568C24.8997 10.9571 24.2622 11.5415 23.1176 11.5415C22.0309 11.5415 21.2485 11.0199 21.1906 10.0057H19.3264C19.3602 12.1114 21.094 13.1497 23.1176 13.1497C25.3054 13.1497 26.7446 12.0341 26.7446 10.2423C26.7446 8.71136 25.7014 7.89517 23.842 7.28665L23.3349 7.12244C22.1951 6.75057 21.4659 6.42216 21.4659 5.75085C21.4659 5.06023 22.1613 4.58693 23.1755 4.58693C24.2139 4.58693 24.8031 5.08437 24.8852 5.91989ZM35.5983 3.10909H27.7745V4.7125H30.7398V13H32.633V4.7125H35.5983V3.10909ZM42.2317 13L42.9513 10.8943H46.7377L47.4573 13H49.5002L45.8539 3.10909H43.8303L40.184 13H42.2317ZM44.7865 5.5142H44.9024L46.2064 9.32955H43.4826L44.7865 5.5142ZM58.5701 3.10909H56.6672V9.74006H56.5851L52.538 3.10909H50.6544V13H52.5621V6.38352H52.6442L56.701 13H58.5701V3.10909ZM63.5867 13C66.5231 13 68.2859 11.1406 68.2859 8.04972C68.2859 4.96364 66.5231 3.10909 63.6302 3.10909H60.2302V13H63.5867ZM63.524 4.7608C65.3978 4.7608 66.3782 5.80881 66.3782 8.04972C66.3782 10.2906 65.3978 11.3483 63.495 11.3483H62.1379V4.7608H63.524ZM75.0859 13H77.2012L75.1535 8.93352C76.1484 8.43608 76.8149 7.55227 76.8149 6.18068C76.8149 4.34062 75.6751 3.10909 73.3328 3.10909H69.6865V13H71.5941V9.30057H73.2507L75.0859 13ZM71.5941 4.7125H73.3328C74.4484 4.7125 74.9265 5.34517 74.9265 6.21932C74.9265 7.16591 74.3856 7.70199 73.2893 7.70199H71.5941V4.7125ZM86.5319 8.06903C86.5319 4.84773 84.6677 2.97386 82.1902 2.97386C79.7029 2.97386 77.8242 4.84773 77.8242 8.06903C77.8242 11.2759 79.7029 13.1352 82.1902 13.1352C84.6677 13.1352 86.5319 11.2759 86.5319 8.06903ZM84.6242 8.06903C84.6242 10.4017 83.5956 11.4111 82.1902 11.4111C80.7896 11.4111 79.7319 10.4017 79.7319 8.06903C79.7319 5.73636 80.7896 4.69801 82.1902 4.69801C83.5956 4.69801 84.6242 5.73636 84.6242 8.06903ZM89.8426 3.10909H87.9349V13H89.8426V3.10909ZM94.8508 13C97.7872 13 99.55 11.1406 99.55 8.04972C99.55 4.96364 97.7872 3.10909 94.8943 3.10909H91.4943V13H94.8508ZM94.788 4.7608C96.6619 4.7608 97.6423 5.80881 97.6423 8.04972C97.6423 10.2906 96.6619 11.3483 94.7591 11.3483H93.402V4.7608H94.788ZM106.367 13L107.086 10.8943H110.873L111.592 13H113.635L109.989 3.10909H107.965L104.319 13H106.367ZM108.922 5.5142H109.038L110.342 9.32955H107.618L108.922 5.5142ZM118.455 9.54205C120.87 9.54205 121.918 8.25256 121.918 6.3304C121.918 4.43722 120.913 3.10909 118.45 3.10909H114.79V13H116.697V9.54205H118.455ZM116.697 4.7125H118.45C119.619 4.7125 120.03 5.41761 120.03 6.3304C120.03 7.24318 119.619 7.95795 118.455 7.95795H116.697V4.7125ZM127.115 9.54205C129.529 9.54205 130.577 8.25256 130.577 6.3304C130.577 4.43722 129.573 3.10909 127.11 3.10909H123.449V13H125.357V9.54205H127.115ZM125.357 4.7125H127.11C128.279 4.7125 128.689 5.41761 128.689 6.3304C128.689 7.24318 128.279 7.95795 127.115 7.95795H125.357V4.7125Z" transform="translate(22.0195 25.9004)" fill="#444444"/>
<path d="M4.7233 8.63636C6.88693 8.63636 7.83239 7.30909 7.83239 5.63636C7.83239 3.96364 6.88693 2.69091 4.70511 2.69091H1.59602V12H2.7233V8.63636H4.7233ZM2.7233 3.69091H4.70511C6.2142 3.69091 6.7233 4.49091 6.7233 5.63636C6.7233 6.78182 6.2142 7.63636 4.7233 7.63636H2.7233V3.69091ZM10.6358 2.69091H9.56307V12H10.6358V2.69091ZM16.7824 12H17.8551V7.4C17.8551 5.18182 16.1642 4.92727 15.2733 4.92727C14.2188 4.92727 13.0188 5.29091 12.4733 6.56364L13.4915 6.92727C13.7278 6.41818 14.2915 5.87273 15.3278 5.87273C16.1642 5.87273 16.7824 6.23636 16.7824 7.4V7.41818C16.7824 7.87273 15.946 7.83636 14.9824 7.96364C13.6733 8.12727 12.2733 8.43636 12.2733 10.0182C12.2733 11.3818 13.3278 12.1636 14.6551 12.1636C15.8733 12.1636 16.5097 11.5091 16.7278 11.0545H16.7824V12ZM16.7824 9.47273C16.7824 10.3455 16.0915 11.2 14.8188 11.2C13.9642 11.2 13.346 10.8182 13.346 10.0727C13.346 9.25455 14.0915 9 14.9278 8.89091C15.3824 8.83636 16.6006 8.70909 16.7824 8.49091V9.47273ZM21.2256 12.6909C20.8256 13.7273 20.3347 13.8182 19.571 13.6364L19.2983 14.5818C19.4074 14.6364 19.7165 14.7091 20.0801 14.7091C21.0438 14.7091 21.7347 14.2 22.1347 13.1273L25.1347 5.01818H23.971L22.0438 10.5818H21.9665L20.0438 5.01818H18.8801L21.471 12.0455L21.2256 12.6909ZM35.3506 5.09091H36.4415C36.3506 3.61818 35.096 2.56364 33.296 2.56364C31.5142 2.56364 30.1142 3.6 30.1142 5.16364C30.1142 6.41818 31.0233 7.16364 32.4778 7.58182L33.6233 7.90909C34.8778 8.27273 35.4778 8.61818 35.4778 9.45455C35.4778 10.4727 34.496 11.1455 33.2051 11.1455C32.096 11.1455 31.1142 10.6545 31.0233 9.6H29.8597C29.9688 11.1273 31.2051 12.1636 33.2051 12.1636C35.3506 12.1636 36.5688 10.9818 36.5688 9.45455C36.5688 8.16364 35.7142 7.38182 33.9506 6.90909L33.0051 6.65455C31.7688 6.32727 31.2051 5.87273 31.2051 5.12727C31.2051 4.21818 32.0233 3.56364 33.2597 3.56364C34.3869 3.56364 35.1869 4.09091 35.3506 5.09091ZM41.2028 5.01818H39.7119V3.52727H38.6392V5.01818H37.5847V6.01818H38.6392V10.2909C38.6392 11.5091 39.621 12.0909 40.5301 12.0909C40.9301 12.0909 41.1847 12.0182 41.3301 11.9636L41.1119 11C41.021 11.0182 40.8756 11.0545 40.6392 11.0545C40.1665 11.0545 39.7119 10.9091 39.7119 10V6.01818H41.2028V5.01818ZM45.5744 12.1455C47.4653 12.1455 48.7381 10.7091 48.7381 8.54545C48.7381 6.36364 47.4653 4.92727 45.5744 4.92727C43.6835 4.92727 42.4108 6.36364 42.4108 8.54545C42.4108 10.7091 43.6835 12.1455 45.5744 12.1455ZM45.5744 11.1818C44.1381 11.1818 43.4835 9.94545 43.4835 8.54545C43.4835 7.14545 44.1381 5.89091 45.5744 5.89091C47.0108 5.89091 47.6653 7.14545 47.6653 8.54545C47.6653 9.94545 47.0108 11.1818 45.5744 11.1818ZM54.2301 5.16364C54.0119 5.03636 53.6665 4.90909 53.3028 4.90909C52.4847 4.90909 51.721 5.54545 51.521 6.21818H51.4483V5.01818H50.3756V12H51.4483V8.05455C51.4665 7.10909 52.121 6.01818 53.2665 6.01818C53.5756 6.01818 53.7574 6.10909 53.8665 6.16364L54.2301 5.16364ZM57.9653 12.1455C59.3835 12.1455 60.4199 11.4364 60.7472 10.3818L59.7108 10.0909C59.4381 10.8182 58.8199 11.1818 57.9653 11.1818C56.7017 11.1818 55.9063 10.3818 55.7972 8.87273H60.8563V8.41818C60.8563 5.81818 59.3108 4.92727 57.8563 4.92727C55.9653 4.92727 54.7108 6.41818 54.7108 8.56364C54.7108 10.7091 55.9472 12.1455 57.9653 12.1455ZM57.8563 5.89091C59.0199 5.89091 59.7653 6.76364 59.7653 7.94545H55.8199C55.9926 6.63636 56.7835 5.89091 57.8563 5.89091Z" transform="translate(57.418 0.299805)" fill="#5F5F5F"/>
<path d="M7.00341 11H2.43977V10.9455L4.94886 8.38182C5.9125 7.4 6.76704 6.27273 6.76704 5.2C6.76704 3.67273 5.60341 2.56364 3.89432 2.56364C1.89432 2.56364 1.09432 4.09091 1.09432 5.6H2.20341C2.20341 4.52727 2.60341 3.49091 3.85795 3.49091C4.98523 3.49091 5.67614 4.30909 5.67614 5.23636C5.67614 6.03636 5.14886 6.65455 4.02159 7.81818L0.748863 11.1818V12H7.00341V11ZM14.6773 6.81818C14.6773 4.09091 13.6045 2.56364 11.5864 2.56364C9.55 2.56364 8.45909 4.09091 8.45909 6.81818V7.70909C8.45909 10.4545 9.56818 12.1273 11.6045 12.1273C13.6227 12.1273 14.6773 10.4545 14.6773 7.70909V6.81818ZM13.55 7.90909C13.55 9.65455 12.9318 11.1273 11.6045 11.1273C10.2591 11.1273 9.58636 9.65455 9.58636 7.90909V6.61818C9.58636 4.85455 10.2409 3.56364 11.5864 3.56364C12.9136 3.56364 13.55 4.85455 13.55 6.61818V7.90909ZM19.333 2.69091H18.3875C18.2784 2.8 17.6784 4.07273 16.2239 4.07273V5.01818C17.2966 5.01818 18.0602 4.58182 18.1875 4.32727H18.2602V12H19.333V2.69091ZM26.6216 5.01818H27.6943C27.367 3.41818 26.458 2.54545 24.9852 2.54545C22.858 2.54545 21.858 4.36364 21.858 7.23636V7.54545C21.858 10.5273 22.858 12.1273 24.8943 12.1273C26.8216 12.1273 27.8398 10.6909 27.8398 9.12727C27.8398 7.58182 26.8216 6.14545 25.0398 6.14545C24.3125 6.14545 23.5216 6.38636 22.9716 6.99091C23.0352 4.19091 24.0352 3.56364 25.0034 3.56364C26.0943 3.56364 26.4034 4.36364 26.6216 5.01818ZM25.0216 7.14545C26.2943 7.14545 26.767 8.09091 26.767 9.12727C26.767 10.3818 26.058 11.1455 24.9852 11.1455C23.9761 11.1455 23.0761 10.4682 23.058 9.07727C23.0761 7.91364 23.8716 7.14545 25.0216 7.14545ZM37.3318 7.50909H33.2591V8.50909H37.3318V7.50909ZM48.7284 11H44.1648V10.9455L46.6739 8.38182C47.6375 7.4 48.492 6.27273 48.492 5.2C48.492 3.67273 47.3284 2.56364 45.6193 2.56364C43.6193 2.56364 42.8193 4.09091 42.8193 5.6H43.9284C43.9284 4.52727 44.3284 3.49091 45.583 3.49091C46.7102 3.49091 47.4011 4.30909 47.4011 5.23636C47.4011 6.03636 46.8739 6.65455 45.7466 7.81818L42.4739 11.1818V12H48.7284V11ZM56.4023 6.81818C56.4023 4.09091 55.3295 2.56364 53.3114 2.56364C51.275 2.56364 50.1841 4.09091 50.1841 6.81818V7.70909C50.1841 10.4545 51.2932 12.1273 53.3295 12.1273C55.3477 12.1273 56.4023 10.4545 56.4023 7.70909V6.81818ZM55.275 7.90909C55.275 9.65455 54.6568 11.1273 53.3295 11.1273C51.9841 11.1273 51.3114 9.65455 51.3114 7.90909V6.61818C51.3114 4.85455 51.9659 3.56364 53.3114 3.56364C54.6386 3.56364 55.275 4.85455 55.275 6.61818V7.90909ZM61.058 2.69091H60.1125C60.0034 2.8 59.4034 4.07273 57.9489 4.07273V5.01818C59.0216 5.01818 59.7852 4.58182 59.9125 4.32727H59.9852V12H61.058V2.69091ZM69.2739 2.69091H63.4557V3.74545H68.183L64.3284 12H65.5648L69.2739 3.85455V2.69091Z" transform="translate(53.6211 69.0996)" fill="#5F5F5F"/>
</svg>
