<svg width="177" height="86" viewBox="0 0 177 86" fill="none" xmlns="http://www.w3.org/2000/svg">
<path fill-rule="evenodd" clip-rule="evenodd" d="M24.0954 3.61328C21.0563 6.39453 19.9977 11.2422 19.9977 11.2422C19.9977 11.2422 25.4391 10.1992 28.6891 7.22754C31.9352 4.25488 32.2829 0 32.2829 0C32.2829 0 27.1344 0.833008 24.0954 3.61328ZM18.2985 13.8525C15.6501 14.8945 13.6032 19.2734 13.6032 19.2734C13.6032 19.2734 18.4704 19.3018 21.0954 18.2695C23.7204 17.2373 27.3883 13.8525 27.3883 13.8525C27.3883 13.8525 20.9469 12.8115 18.2985 13.8525ZM7.20866 29.3115C7.20866 29.3115 3.95475 26.2676 4.51334 21.4814C5.07194 16.6953 9.10709 13.0498 9.10709 13.0498C9.10709 13.0498 10.5524 16.501 10.0055 21.1807C9.46256 25.8604 7.20866 29.3115 7.20866 29.3115ZM1.01725 35.334C1.66959 38.3984 5.81413 41.6582 5.81413 41.6582C5.81413 41.6582 6.46256 36.2822 5.81413 33.2256C5.16178 30.1689 2.41569 25.6973 2.41569 25.6973C2.41569 25.6973 0.364907 32.2695 1.01725 35.334ZM7.91178 53.7031C7.91178 53.7031 3.11881 51.834 1.41959 48.7852C-0.28353 45.7354 0.0211573 39.5498 0.0211573 39.5498C0.0211573 39.5498 3.99381 42.3857 5.71256 45.4717C7.43522 48.5576 7.91178 53.7031 7.91178 53.7031ZM17.904 66.6533C18.9274 69.2666 23.8962 72.2744 23.8962 72.2744C23.8962 72.2744 23.7243 67.2197 22.5954 64.3438C21.4704 61.4688 18.5016 58.5225 18.5016 58.5225C18.5016 58.5225 16.8766 64.04 17.904 66.6533ZM13.8063 64.5449C13.8063 64.5449 12.3063 60.7373 9.50944 58.1201C6.71256 55.5029 2.21647 53.7031 2.21647 53.7031C2.21647 53.7031 1.986 58.708 5.11491 61.6328C8.23991 64.5586 13.8063 64.5449 13.8063 64.5449ZM17.2985 12.0459C15.5485 15.8096 12.1071 18.3701 12.1071 18.3701C12.1071 18.3701 11.486 12.457 12.7048 9.83691C13.9235 7.2168 19.9977 2.81055 19.9977 2.81055C19.9977 2.81055 19.0524 8.28125 17.2985 12.0459ZM8.71256 30.0137C8.71256 30.0137 8.35319 25.8408 11.1071 23.4893C13.8649 21.1377 19.2985 20.9795 19.2985 20.9795C19.2985 20.9795 17.8688 24.7129 15.3024 26.9023C12.736 29.0918 8.71256 30.0137 8.71256 30.0137ZM8.21256 34.1299C5.96647 37.6357 7.21256 41.6582 7.21256 41.6582C7.21256 41.6582 10.6462 40.457 12.7087 37.2412C14.7673 34.0254 14.8063 29.8135 14.8063 29.8135C14.8063 29.8135 10.4587 30.623 8.21256 34.1299ZM9.31022 53.2021C9.31022 53.2021 7.07194 49.085 8.31022 44.9707C9.55241 40.8564 13.3063 39.9521 13.3063 39.9521C13.3063 39.9521 14.568 42.8916 13.3063 47.0791C12.0446 51.2666 9.31022 53.2021 9.31022 53.2021ZM11.2048 56.5146C11.3454 59.8682 15.0016 63.9424 15.0016 63.9424C15.0016 63.9424 17.0407 60.1719 16.9001 56.7646C16.7594 53.3584 14.404 49.5879 14.404 49.5879C14.404 49.5879 11.068 53.1602 11.2048 56.5146ZM22.8962 73.0781C22.8962 73.0781 19.1969 69.4678 16.1032 68.0586C13.0094 66.6494 7.91178 66.252 7.91178 66.252C7.91178 66.252 9.65397 70.8379 12.8063 72.2744C15.9587 73.7109 22.8962 73.0781 22.8962 73.0781ZM24.7477 73.6787C24.6344 73.8701 24.7008 74.1162 24.8923 74.2275C27.7048 75.8672 30.2673 77.0186 32.5758 77.6797C34.8805 78.3398 37.8727 78.7793 41.5524 78.999C41.7712 79.0127 41.9626 78.8438 41.9743 78.6221C41.986 78.4014 41.818 78.2109 41.5993 78.1973C37.9743 77.9805 35.0368 77.5498 32.7946 76.9072C30.5524 76.2656 28.0524 75.1416 25.2946 73.5332C25.1032 73.4219 24.8571 73.4863 24.7477 73.6787Z" transform="translate(0.945312 0.5)" fill="#444444"/>
<path fill-rule="evenodd" clip-rule="evenodd" d="M24.0954 3.61328C21.0563 6.39453 19.9977 11.2422 19.9977 11.2422C19.9977 11.2422 25.4391 10.1992 28.6891 7.22754C31.9352 4.25488 32.2829 0 32.2829 0C32.2829 0 27.1344 0.833008 24.0954 3.61328ZM18.2985 13.8525C15.6501 14.8945 13.6032 19.2734 13.6032 19.2734C13.6032 19.2734 18.4704 19.3018 21.0954 18.2695C23.7204 17.2373 27.3883 13.8525 27.3883 13.8525C27.3883 13.8525 20.9469 12.8115 18.2985 13.8525ZM7.20866 29.3115C7.20866 29.3115 3.95475 26.2676 4.51334 21.4814C5.07194 16.6953 9.10709 13.0498 9.10709 13.0498C9.10709 13.0498 10.5524 16.501 10.0055 21.1807C9.46256 25.8604 7.20866 29.3115 7.20866 29.3115ZM1.01725 35.334C1.66959 38.3984 5.81413 41.6582 5.81413 41.6582C5.81413 41.6582 6.46256 36.2822 5.81413 33.2256C5.16178 30.1689 2.41569 25.6973 2.41569 25.6973C2.41569 25.6973 0.364907 32.2695 1.01725 35.334ZM7.91178 53.7031C7.91178 53.7031 3.11881 51.834 1.41959 48.7852C-0.28353 45.7354 0.0211573 39.5498 0.0211573 39.5498C0.0211573 39.5498 3.99381 42.3857 5.71256 45.4717C7.43522 48.5576 7.91178 53.7031 7.91178 53.7031ZM17.904 66.6533C18.9274 69.2666 23.8962 72.2744 23.8962 72.2744C23.8962 72.2744 23.7243 67.2197 22.5954 64.3438C21.4704 61.4688 18.5016 58.5225 18.5016 58.5225C18.5016 58.5225 16.8766 64.04 17.904 66.6533ZM13.8063 64.5449C13.8063 64.5449 12.3063 60.7373 9.50944 58.1201C6.71256 55.5029 2.21647 53.7031 2.21647 53.7031C2.21647 53.7031 1.986 58.708 5.11491 61.6328C8.23991 64.5586 13.8063 64.5449 13.8063 64.5449ZM17.2985 12.0459C15.5485 15.8096 12.1071 18.3701 12.1071 18.3701C12.1071 18.3701 11.486 12.457 12.7048 9.83691C13.9235 7.2168 19.9977 2.81055 19.9977 2.81055C19.9977 2.81055 19.0524 8.28125 17.2985 12.0459ZM8.71256 30.0137C8.71256 30.0137 8.35319 25.8408 11.1071 23.4893C13.8649 21.1377 19.2985 20.9795 19.2985 20.9795C19.2985 20.9795 17.8688 24.7129 15.3024 26.9023C12.736 29.0918 8.71256 30.0137 8.71256 30.0137ZM8.21256 34.1299C5.96647 37.6357 7.21256 41.6582 7.21256 41.6582C7.21256 41.6582 10.6462 40.457 12.7087 37.2412C14.7673 34.0254 14.8063 29.8135 14.8063 29.8135C14.8063 29.8135 10.4587 30.623 8.21256 34.1299ZM9.31022 53.2021C9.31022 53.2021 7.07194 49.085 8.31022 44.9707C9.55241 40.8564 13.3063 39.9521 13.3063 39.9521C13.3063 39.9521 14.568 42.8916 13.3063 47.0791C12.0446 51.2666 9.31022 53.2021 9.31022 53.2021ZM11.2048 56.5146C11.3454 59.8682 15.0016 63.9424 15.0016 63.9424C15.0016 63.9424 17.0407 60.1719 16.9001 56.7646C16.7594 53.3584 14.404 49.5879 14.404 49.5879C14.404 49.5879 11.068 53.1602 11.2048 56.5146ZM22.8962 73.0781C22.8962 73.0781 19.1969 69.4678 16.1032 68.0586C13.0094 66.6494 7.91178 66.252 7.91178 66.252C7.91178 66.252 9.65397 70.8379 12.8063 72.2744C15.9587 73.7109 22.8962 73.0781 22.8962 73.0781ZM24.7477 73.6787C24.6344 73.8701 24.7008 74.1162 24.8923 74.2275C27.7048 75.8672 30.2673 77.0186 32.5758 77.6797C34.8805 78.3398 37.8727 78.7793 41.5524 78.999C41.7712 79.0127 41.9626 78.8438 41.9743 78.6221C41.986 78.4014 41.818 78.2109 41.5993 78.1973C37.9743 77.9805 35.0368 77.5498 32.7946 76.9072C30.5524 76.2656 28.0524 75.1416 25.2946 73.5332C25.1032 73.4219 24.8571 73.4863 24.7477 73.6787Z" transform="translate(176.895 0.5) scale(-1 1)" fill="#444444"/>
<path d="M38.7247 13L39.4443 10.8943H43.2306L43.9502 13H45.9931L42.3468 3.10909H40.3233L36.677 13H38.7247ZM41.2795 5.5142H41.3954L42.6994 9.32955H39.9755L41.2795 5.5142ZM55.063 3.10909H53.1602V9.74006H53.0781L49.0309 3.10909H47.1474V13H49.0551V6.38352H49.1372L53.194 13H55.063V3.10909ZM60.0797 13C63.0161 13 64.7789 11.1406 64.7789 8.04972C64.7789 4.96364 63.0161 3.10909 60.1232 3.10909H56.7232V13H60.0797ZM60.0169 4.7608C61.8908 4.7608 62.8712 5.80881 62.8712 8.04972C62.8712 10.2906 61.8908 11.3483 59.988 11.3483H58.6309V4.7608H60.0169ZM71.5789 13H73.6942L71.6465 8.93352C72.6414 8.43608 73.3078 7.55227 73.3078 6.18068C73.3078 4.34062 72.1681 3.10909 69.8257 3.10909H66.1794V13H68.0871V9.30057H69.7436L71.5789 13ZM68.0871 4.7125H69.8257C70.9414 4.7125 71.4195 5.34517 71.4195 6.21932C71.4195 7.16591 70.8786 7.70199 69.7823 7.70199H68.0871V4.7125ZM83.0249 8.06903C83.0249 4.84773 81.1607 2.97386 78.6831 2.97386C76.1959 2.97386 74.3172 4.84773 74.3172 8.06903C74.3172 11.2759 76.1959 13.1352 78.6831 13.1352C81.1607 13.1352 83.0249 11.2759 83.0249 8.06903ZM81.1172 8.06903C81.1172 10.4017 80.0885 11.4111 78.6831 11.4111C77.2826 11.4111 76.2249 10.4017 76.2249 8.06903C76.2249 5.73636 77.2826 4.69801 78.6831 4.69801C80.0885 4.69801 81.1172 5.73636 81.1172 8.06903ZM86.3355 3.10909H84.4279V13H86.3355V3.10909ZM91.3438 13C94.2802 13 96.0429 11.1406 96.0429 8.04972C96.0429 4.96364 94.2802 3.10909 91.3873 3.10909H87.9873V13H91.3438ZM91.281 4.7608C93.1549 4.7608 94.1353 5.80881 94.1353 8.04972C94.1353 10.2906 93.1549 11.3483 91.252 11.3483H89.8949V4.7608H91.281ZM31.5619 27.3966H27.0414V24.8514H30.9195V23.2528H27.0414V20.7125H31.5377V19.1091H25.1337V29H31.5619V27.3966ZM34.893 19.1091H32.7197L35.6996 24.0545L32.6666 29H34.8641L36.9166 25.5034H36.9939L39.0464 29H41.2439L38.2399 24.0545L41.1908 19.1091H39.0175L36.9939 22.6202H36.9166L34.893 19.1091ZM49.8369 22.2145C49.3539 20.1474 47.7457 18.9739 45.7656 18.9739C43.2494 18.9739 41.3996 20.8719 41.3996 24.069C41.3996 27.2517 43.2494 29.1352 45.7656 29.1352C47.7457 29.1352 49.3394 27.9761 49.8272 25.9332L47.9582 25.7256C47.6684 26.846 46.8184 27.4111 45.7656 27.4111C44.3408 27.4111 43.3073 26.3727 43.3073 24.069C43.3073 21.7605 44.3408 20.698 45.7656 20.698C46.8184 20.698 47.6925 21.2727 47.9823 22.4222L49.8369 22.2145ZM57.6064 27.3966H53.0859V24.8514H56.9641V23.2528H53.0859V20.7125H57.5822V19.1091H51.1783V29H57.6064V27.3966ZM65.3131 27.3966H61.1211V19.1091H59.2134V29H65.3131V27.3966ZM72.91 27.3966H68.718V19.1091H66.8103V29H72.91V27.3966ZM80.8353 27.3966H76.3148V24.8514H80.193V23.2528H76.3148V20.7125H80.8111V19.1091H74.4072V29H80.8353V27.3966ZM90.3579 19.1091H88.4551V25.7401H88.373L84.3258 19.1091H82.4423V29H84.35V22.3835H84.4321L88.4889 29H90.3579V19.1091ZM100.199 22.2145C99.7164 20.1474 98.1082 18.9739 96.1281 18.9739C93.6119 18.9739 91.7621 20.8719 91.7621 24.069C91.7621 27.2517 93.6119 29.1352 96.1281 29.1352C98.1082 29.1352 99.7019 27.9761 100.19 25.9332L98.3207 25.7256C98.0309 26.846 97.1809 27.4111 96.1281 27.4111C94.7033 27.4111 93.6698 26.3727 93.6698 24.069C93.6698 21.7605 94.7033 20.698 96.1281 20.698C97.1809 20.698 98.055 21.2727 98.3448 22.4222L100.199 22.2145ZM107.969 27.3966H103.448V24.8514H107.327V23.2528H103.448V20.7125H107.945V19.1091H101.541V29H107.969V27.3966Z" transform="translate(22.918 25.5)" fill="#444444"/>
<path d="M4.7233 8.63636C6.88693 8.63636 7.83239 7.30909 7.83239 5.63636C7.83239 3.96364 6.88693 2.69091 4.70511 2.69091H1.59602V12H2.7233V8.63636H4.7233ZM2.7233 3.69091H4.70511C6.2142 3.69091 6.7233 4.49091 6.7233 5.63636C6.7233 6.78182 6.2142 7.63636 4.7233 7.63636H2.7233V3.69091ZM10.6358 2.69091H9.56307V12H10.6358V2.69091ZM16.7824 12H17.8551V7.4C17.8551 5.18182 16.1642 4.92727 15.2733 4.92727C14.2188 4.92727 13.0188 5.29091 12.4733 6.56364L13.4915 6.92727C13.7278 6.41818 14.2915 5.87273 15.3278 5.87273C16.1642 5.87273 16.7824 6.23636 16.7824 7.4V7.41818C16.7824 7.87273 15.946 7.83636 14.9824 7.96364C13.6733 8.12727 12.2733 8.43636 12.2733 10.0182C12.2733 11.3818 13.3278 12.1636 14.6551 12.1636C15.8733 12.1636 16.5097 11.5091 16.7278 11.0545H16.7824V12ZM16.7824 9.47273C16.7824 10.3455 16.0915 11.2 14.8188 11.2C13.9642 11.2 13.346 10.8182 13.346 10.0727C13.346 9.25455 14.0915 9 14.9278 8.89091C15.3824 8.83636 16.6006 8.70909 16.7824 8.49091V9.47273ZM21.2256 12.6909C20.8256 13.7273 20.3347 13.8182 19.571 13.6364L19.2983 14.5818C19.4074 14.6364 19.7165 14.7091 20.0801 14.7091C21.0438 14.7091 21.7347 14.2 22.1347 13.1273L25.1347 5.01818H23.971L22.0438 10.5818H21.9665L20.0438 5.01818H18.8801L21.471 12.0455L21.2256 12.6909ZM35.3506 5.09091H36.4415C36.3506 3.61818 35.096 2.56364 33.296 2.56364C31.5142 2.56364 30.1142 3.6 30.1142 5.16364C30.1142 6.41818 31.0233 7.16364 32.4778 7.58182L33.6233 7.90909C34.8778 8.27273 35.4778 8.61818 35.4778 9.45455C35.4778 10.4727 34.496 11.1455 33.2051 11.1455C32.096 11.1455 31.1142 10.6545 31.0233 9.6H29.8597C29.9688 11.1273 31.2051 12.1636 33.2051 12.1636C35.3506 12.1636 36.5688 10.9818 36.5688 9.45455C36.5688 8.16364 35.7142 7.38182 33.9506 6.90909L33.0051 6.65455C31.7688 6.32727 31.2051 5.87273 31.2051 5.12727C31.2051 4.21818 32.0233 3.56364 33.2597 3.56364C34.3869 3.56364 35.1869 4.09091 35.3506 5.09091ZM41.2028 5.01818H39.7119V3.52727H38.6392V5.01818H37.5847V6.01818H38.6392V10.2909C38.6392 11.5091 39.621 12.0909 40.5301 12.0909C40.9301 12.0909 41.1847 12.0182 41.3301 11.9636L41.1119 11C41.021 11.0182 40.8756 11.0545 40.6392 11.0545C40.1665 11.0545 39.7119 10.9091 39.7119 10V6.01818H41.2028V5.01818ZM45.5744 12.1455C47.4653 12.1455 48.7381 10.7091 48.7381 8.54545C48.7381 6.36364 47.4653 4.92727 45.5744 4.92727C43.6835 4.92727 42.4108 6.36364 42.4108 8.54545C42.4108 10.7091 43.6835 12.1455 45.5744 12.1455ZM45.5744 11.1818C44.1381 11.1818 43.4835 9.94545 43.4835 8.54545C43.4835 7.14545 44.1381 5.89091 45.5744 5.89091C47.0108 5.89091 47.6653 7.14545 47.6653 8.54545C47.6653 9.94545 47.0108 11.1818 45.5744 11.1818ZM54.2301 5.16364C54.0119 5.03636 53.6665 4.90909 53.3028 4.90909C52.4847 4.90909 51.721 5.54545 51.521 6.21818H51.4483V5.01818H50.3756V12H51.4483V8.05455C51.4665 7.10909 52.121 6.01818 53.2665 6.01818C53.5756 6.01818 53.7574 6.10909 53.8665 6.16364L54.2301 5.16364ZM57.9653 12.1455C59.3835 12.1455 60.4199 11.4364 60.7472 10.3818L59.7108 10.0909C59.4381 10.8182 58.8199 11.1818 57.9653 11.1818C56.7017 11.1818 55.9063 10.3818 55.7972 8.87273H60.8563V8.41818C60.8563 5.81818 59.3108 4.92727 57.8563 4.92727C55.9653 4.92727 54.7108 6.41818 54.7108 8.56364C54.7108 10.7091 55.9472 12.1455 57.9653 12.1455ZM57.8563 5.89091C59.0199 5.89091 59.7653 6.76364 59.7653 7.94545H55.8199C55.9926 6.63636 56.7835 5.89091 57.8563 5.89091Z" transform="translate(58.918 0.5)" fill="#5F5F5F"/>
<path d="M7.07216 11H2.50852V10.9455L5.01761 8.38182C5.98125 7.4 6.8358 6.27273 6.8358 5.2C6.8358 3.67273 5.67216 2.56364 3.96307 2.56364C1.96307 2.56364 1.16307 4.09091 1.16307 5.6H2.27216C2.27216 4.52727 2.67216 3.49091 3.9267 3.49091C5.05398 3.49091 5.74489 4.30909 5.74489 5.23636C5.74489 6.03636 5.21761 6.65455 4.09034 7.81818L0.817613 11.1818V12H7.07216V11ZM14.746 6.81818C14.746 4.09091 13.6733 2.56364 11.6551 2.56364C9.61875 2.56364 8.52784 4.09091 8.52784 6.81818V7.70909C8.52784 10.4545 9.63693 12.1273 11.6733 12.1273C13.6915 12.1273 14.746 10.4545 14.746 7.70909V6.81818ZM13.6187 7.90909C13.6187 9.65455 13.0006 11.1273 11.6733 11.1273C10.3278 11.1273 9.65511 9.65455 9.65511 7.90909V6.61818C9.65511 4.85455 10.3097 3.56364 11.6551 3.56364C12.9824 3.56364 13.6187 4.85455 13.6187 6.61818V7.90909ZM19.4017 2.69091H18.4563C18.3472 2.8 17.7472 4.07273 16.2926 4.07273V5.01818C17.3653 5.01818 18.129 4.58182 18.2563 4.32727H18.329V12H19.4017V2.69091ZM27.9449 9.36364C27.9449 8.27727 27.3949 7.47273 26.5403 7.05C27.2631 6.67727 27.7267 5.99545 27.7267 4.98182C27.7267 3.4 26.5631 2.56364 25.0176 2.56364C23.454 2.56364 22.2722 3.4 22.2722 4.98182C22.2722 5.99091 22.7222 6.67273 23.4403 7.04545C22.5903 7.46818 22.054 8.27273 22.054 9.36364C22.054 11.0545 23.3631 12.1273 25.0176 12.1273C26.654 12.1273 27.9449 11.0364 27.9449 9.36364ZM26.6722 5.01818C26.6722 5.92727 25.8722 6.58182 25.0176 6.58182C24.1449 6.58182 23.3267 5.92727 23.3267 5C23.3267 4.07273 24.1449 3.52727 24.9812 3.52727C25.8722 3.52727 26.6722 4.12727 26.6722 5.01818ZM26.8358 9.36364C26.8358 10.3455 26.054 11.1818 25.0176 11.1818C23.9812 11.1818 23.1449 10.3455 23.1449 9.34545C23.1449 8.34545 23.9812 7.49091 24.9812 7.49091C25.9812 7.49091 26.8358 8.34545 26.8358 9.36364Z" transform="translate(75.418 69.5)" fill="#5F5F5F"/>
</svg>
