<svg width="177" height="86" viewBox="0 0 177 86" fill="black" xmlns="http://www.w3.org/2000/svg">
<path fill-rule="evenodd" clip-rule="evenodd" d="M24.1227 3.59961C21.0798 6.37012 20.0212 11.1992 20.0212 11.1992C20.0212 11.1992 25.4704 10.1602 28.7204 7.19922C31.9743 4.23926 32.3219 0 32.3219 0C32.3219 0 27.1657 0.830078 24.1227 3.59961ZM18.318 13.7998C15.6696 14.8379 13.6188 19.1992 13.6188 19.1992C13.6188 19.1992 18.4938 19.2275 21.1188 18.2002C23.7477 17.1719 27.4196 13.7998 27.4196 13.7998C27.4196 13.7998 20.9704 12.7627 18.318 13.7998ZM7.22038 29.2002C7.22038 29.2002 3.96256 26.168 4.52116 21.4004C5.07975 16.6318 9.12272 13 9.12272 13C9.12272 13 10.568 16.4375 10.0212 21.0996C9.47428 25.7627 7.22038 29.2002 7.22038 29.2002ZM1.01725 35.1992C1.66959 38.252 5.81803 41.5 5.81803 41.5C5.81803 41.5 6.47038 36.1445 5.81803 33.0996C5.16569 30.0547 2.41959 25.5996 2.41959 25.5996C2.41959 25.5996 0.364907 32.1465 1.01725 35.1992ZM7.91959 53.5C7.91959 53.5 3.12272 51.6377 1.41959 48.6006C-0.28353 45.5625 0.0211573 39.4004 0.0211573 39.4004C0.0211573 39.4004 3.99772 42.2256 5.72038 45.2998C7.44303 48.374 7.91959 53.5 7.91959 53.5ZM17.9196 66.3994C18.943 69.0029 23.9196 71.999 23.9196 71.999C23.9196 71.999 23.7477 66.9639 22.6188 64.0996C21.4899 61.2344 18.5173 58.2998 18.5173 58.2998C18.5173 58.2998 16.8923 63.7969 17.9196 66.3994ZM13.8219 64.3008C13.8219 64.3008 12.3219 60.5078 9.52116 57.9004C6.72038 55.293 2.22038 53.5 2.22038 53.5C2.22038 53.5 1.98991 58.4854 5.11881 61.4004C8.25163 64.3145 13.8219 64.3008 13.8219 64.3008ZM17.3219 12C15.568 15.75 12.1227 18.2998 12.1227 18.2998C12.1227 18.2998 11.5016 12.4102 12.7204 9.7998C13.943 7.18945 20.0212 2.7998 20.0212 2.7998C20.0212 2.7998 19.0758 8.25 17.3219 12ZM8.72038 29.9004C8.72038 29.9004 8.361 25.7432 11.1188 23.4004C13.8766 21.0576 19.318 20.9004 19.318 20.9004C19.318 20.9004 17.8883 24.6191 15.318 26.8008C12.7516 28.9814 8.72038 29.9004 8.72038 29.9004ZM8.22038 34C5.97038 37.4922 7.22038 41.5 7.22038 41.5C7.22038 41.5 10.6579 40.3027 12.7204 37.0996C14.7829 33.8965 14.8219 29.7002 14.8219 29.7002C14.8219 29.7002 10.4704 30.5068 8.22038 34ZM9.31803 53C9.31803 53 7.07584 48.8975 8.31803 44.7998C9.56022 40.7012 13.318 39.7998 13.318 39.7998C13.318 39.7998 14.5837 42.7285 13.318 46.8994C12.0563 51.0713 9.31803 53 9.31803 53ZM11.2165 56.3008C11.3571 59.6416 15.0173 63.7002 15.0173 63.7002C15.0173 63.7002 17.0602 59.9443 16.9196 56.5498C16.7751 53.1562 14.4196 49.4004 14.4196 49.4004C14.4196 49.4004 11.0798 52.959 11.2165 56.3008ZM22.9196 72.7998C22.9196 72.7998 19.2165 69.2041 16.1188 67.7998C13.0212 66.3965 7.91959 66 7.91959 66C7.91959 66 9.66178 70.5684 12.818 72C15.9743 73.4307 22.9196 72.7998 22.9196 72.7998ZM24.7751 73.3984C24.6618 73.5898 24.7282 73.834 24.9196 73.9453C27.736 75.5791 30.2985 76.7256 32.611 77.3848C34.9196 78.042 37.9157 78.4795 41.5954 78.6992C41.818 78.7119 42.0055 78.5439 42.0212 78.3232C42.0329 78.1025 41.8649 77.9131 41.6462 77.9004C38.0173 77.6846 35.0758 77.2549 32.8298 76.6152C30.5876 75.9756 28.0837 74.8555 25.3219 73.2529C25.1305 73.1426 24.8844 73.207 24.7751 73.3984Z" fill="black"/>
<path fill-rule="evenodd" clip-rule="evenodd" d="M24.1227 3.59961C21.0798 6.37012 20.0212 11.1992 20.0212 11.1992C20.0212 11.1992 25.4704 10.1602 28.7204 7.19922C31.9743 4.23926 32.3219 0 32.3219 0C32.3219 0 27.1657 0.830078 24.1227 3.59961ZM18.318 13.7998C15.6696 14.8379 13.6188 19.1992 13.6188 19.1992C13.6188 19.1992 18.4938 19.2275 21.1188 18.2002C23.7477 17.1719 27.4196 13.7998 27.4196 13.7998C27.4196 13.7998 20.9704 12.7627 18.318 13.7998ZM7.22038 29.2002C7.22038 29.2002 3.96256 26.168 4.52116 21.4004C5.07975 16.6318 9.12272 13 9.12272 13C9.12272 13 10.568 16.4375 10.0212 21.0996C9.47428 25.7627 7.22038 29.2002 7.22038 29.2002ZM1.01725 35.1992C1.66959 38.252 5.81803 41.5 5.81803 41.5C5.81803 41.5 6.47038 36.1445 5.81803 33.0996C5.16569 30.0547 2.41959 25.5996 2.41959 25.5996C2.41959 25.5996 0.364907 32.1465 1.01725 35.1992ZM7.91959 53.5C7.91959 53.5 3.12272 51.6377 1.41959 48.6006C-0.28353 45.5625 0.0211573 39.4004 0.0211573 39.4004C0.0211573 39.4004 3.99772 42.2256 5.72038 45.2998C7.44303 48.374 7.91959 53.5 7.91959 53.5ZM17.9196 66.3994C18.943 69.0029 23.9196 71.999 23.9196 71.999C23.9196 71.999 23.7477 66.9639 22.6188 64.0996C21.4899 61.2344 18.5173 58.2998 18.5173 58.2998C18.5173 58.2998 16.8923 63.7969 17.9196 66.3994ZM13.8219 64.3008C13.8219 64.3008 12.3219 60.5078 9.52116 57.9004C6.72038 55.293 2.22038 53.5 2.22038 53.5C2.22038 53.5 1.98991 58.4854 5.11881 61.4004C8.25163 64.3145 13.8219 64.3008 13.8219 64.3008ZM17.3219 12C15.568 15.75 12.1227 18.2998 12.1227 18.2998C12.1227 18.2998 11.5016 12.4102 12.7204 9.7998C13.943 7.18945 20.0212 2.7998 20.0212 2.7998C20.0212 2.7998 19.0758 8.25 17.3219 12ZM8.72038 29.9004C8.72038 29.9004 8.361 25.7432 11.1188 23.4004C13.8766 21.0576 19.318 20.9004 19.318 20.9004C19.318 20.9004 17.8883 24.6191 15.318 26.8008C12.7516 28.9814 8.72038 29.9004 8.72038 29.9004ZM8.22038 34C5.97038 37.4922 7.22038 41.5 7.22038 41.5C7.22038 41.5 10.6579 40.3027 12.7204 37.0996C14.7829 33.8965 14.8219 29.7002 14.8219 29.7002C14.8219 29.7002 10.4704 30.5068 8.22038 34ZM9.31803 53C9.31803 53 7.07584 48.8975 8.31803 44.7998C9.56022 40.7012 13.318 39.7998 13.318 39.7998C13.318 39.7998 14.5837 42.7285 13.318 46.8994C12.0563 51.0713 9.31803 53 9.31803 53ZM11.2165 56.3008C11.3571 59.6416 15.0173 63.7002 15.0173 63.7002C15.0173 63.7002 17.0602 59.9443 16.9196 56.5498C16.7751 53.1562 14.4196 49.4004 14.4196 49.4004C14.4196 49.4004 11.0798 52.959 11.2165 56.3008ZM22.9196 72.7998C22.9196 72.7998 19.2165 69.2041 16.1188 67.7998C13.0212 66.3965 7.91959 66 7.91959 66C7.91959 66 9.66178 70.5684 12.818 72C15.9743 73.4307 22.9196 72.7998 22.9196 72.7998ZM24.7751 73.3984C24.6618 73.5898 24.7282 73.834 24.9196 73.9453C27.736 75.5791 30.2985 76.7256 32.611 77.3848C34.9196 78.042 37.9157 78.4795 41.5954 78.6992C41.818 78.7119 42.0055 78.5439 42.0212 78.3232C42.0329 78.1025 41.8649 77.9131 41.6462 77.9004C38.0173 77.6846 35.0758 77.2549 32.8298 76.6152C30.5876 75.9756 28.0837 74.8555 25.3219 73.2529C25.1305 73.1426 24.8844 73.207 24.7751 73.3984Z" transform="translate(176.395) scale(-1 1)" fill="black"/>
<path d="M5.67663 13C7.92237 13 9.04765 11.8989 9.04765 10.3341C9.04765 8.96733 8.18799 8.0642 7.09652 7.93864V7.85653C8.14936 7.61023 8.79169 6.94375 8.79169 5.78949C8.79169 4.24886 7.69538 3.10909 5.40618 3.10909H1.77436V13H5.67663ZM3.68203 4.7125H5.36271C6.53629 4.7125 6.91782 5.31136 6.91782 5.99716C6.91782 6.84716 6.34311 7.29631 5.26129 7.29631H3.68203V4.7125ZM7.18345 10.1216C7.18345 10.8895 6.71498 11.3966 5.56072 11.3966H3.68203V8.68239H5.63317C6.67635 8.68239 7.18345 9.34403 7.18345 10.1216ZM16.8884 11.3966H12.368V8.85142H16.2461V7.25284H12.368V4.7125H16.8643V3.10909H10.4603V13H16.8884V11.3966ZM23.6582 5.91989H25.4741C25.4403 4.14744 24.0156 2.97386 21.9582 2.97386C19.9105 2.97386 18.3795 4.08949 18.3795 5.75085C18.3795 7.17557 19.5193 8.07386 21.1276 8.55682L21.6491 8.70653C23.1125 9.15568 23.6727 9.56619 23.6727 10.2568C23.6727 10.9571 23.0352 11.5415 21.8906 11.5415C20.804 11.5415 20.0216 11.0199 19.9636 10.0057H18.0994C18.1332 12.1114 19.867 13.1497 21.8906 13.1497C24.0784 13.1497 25.5176 12.0341 25.5176 10.2423C25.5176 8.71136 24.4744 7.89517 22.6151 7.28665L22.108 7.12244C20.9682 6.75057 20.2389 6.42216 20.2389 5.75085C20.2389 5.06023 20.9344 4.58693 21.9486 4.58693C22.9869 4.58693 23.5761 5.08437 23.6582 5.91989ZM34.3714 3.10909H26.5475V4.7125H29.5129V13H31.406V4.7125H34.3714V3.10909ZM47.3556 3.10909H45.4528V9.74006H45.3707L41.3235 3.10909H39.44V13H41.3477V6.38352H41.4298L45.4866 13H47.3556V3.10909ZM55.4439 11.3966H50.9234V8.85142H54.8016V7.25284H50.9234V4.7125H55.4197V3.10909H49.0158V13H55.4439V11.3966ZM58.4129 3.10909H56.6452L59.2146 13H61.1609L62.9768 6.26278H63.054L64.87 13H66.8163L69.3904 3.10909H67.618L65.831 10.2182H65.7441L63.904 3.10909H62.1316L60.2867 10.2037H60.2046L58.4129 3.10909ZM76.0009 13L76.7205 10.8943H80.5068L81.2264 13H83.2693L79.623 3.10909H77.5994L73.9531 13H76.0009ZM78.5557 5.5142H78.6716L79.9756 9.32955H77.2517L78.5557 5.5142ZM88.0892 9.54205C90.504 9.54205 91.552 8.25256 91.552 6.3304C91.552 4.43722 90.5474 3.10909 88.0844 3.10909H84.4236V13H86.3313V9.54205H88.0892ZM86.3313 4.7125H88.0844C89.2531 4.7125 89.6636 5.41761 89.6636 6.3304C89.6636 7.24318 89.2531 7.95795 88.0892 7.95795H86.3313V4.7125ZM96.7486 9.54205C99.1633 9.54205 100.211 8.25256 100.211 6.3304C100.211 4.43722 99.2068 3.10909 96.7437 3.10909H93.0829V13H94.9906V9.54205H96.7486ZM94.9906 4.7125H96.7437C97.9125 4.7125 98.323 5.41761 98.323 6.3304C98.323 7.24318 97.9125 7.95795 96.7486 7.95795H94.9906V4.7125ZM106.958 5.91989H108.774C108.74 4.14744 107.316 2.97386 105.258 2.97386C103.211 2.97386 101.68 4.08949 101.68 5.75085C101.68 7.17557 102.819 8.07386 104.428 8.55682L104.949 8.70653C106.412 9.15568 106.973 9.56619 106.973 10.2568C106.973 10.9571 106.335 11.5415 105.191 11.5415C104.104 11.5415 103.322 11.0199 103.264 10.0057H101.399C101.433 12.1114 103.167 13.1497 105.191 13.1497C107.378 13.1497 108.818 12.0341 108.818 10.2423C108.818 8.71136 107.774 7.89517 105.915 7.28665L105.408 7.12244C104.268 6.75057 103.539 6.42216 103.539 5.75085C103.539 5.06023 104.234 4.58693 105.249 4.58693C106.287 4.58693 106.876 5.08437 106.958 5.91989Z" transform="translate(33.5195 24.9004)" fill="black"/>
<path d="M1.50909 12L2.38636 9.50909H6.26818L7.14545 12H8.32727L4.90909 2.69091H3.74545L0.327273 12H1.50909ZM4.27273 4.16364H4.38182L5.91364 8.50909H2.74091L4.27273 4.16364ZM9.63182 14.6182H10.7045V10.9273H10.7955C11.0318 11.3091 11.4864 12.1455 12.8318 12.1455C14.5773 12.1455 15.7955 10.7455 15.7955 8.52727C15.7955 6.32727 14.5773 4.92727 12.8136 4.92727C11.45 4.92727 11.0318 5.76364 10.7955 6.12727H10.6682V5.01818H9.63182V14.6182ZM14.7227 8.50909C14.7227 10 14.0318 11.1818 12.6864 11.1818C11.3955 11.1818 10.6864 10.0909 10.6864 8.50909C10.6864 6.94545 11.3773 5.89091 12.6864 5.89091C14.05 5.89091 14.7227 7.03636 14.7227 8.50909ZM17.4318 14.6182H18.5045V10.9273H18.5955C18.8318 11.3091 19.2864 12.1455 20.6318 12.1455C22.3773 12.1455 23.5955 10.7455 23.5955 8.52727C23.5955 6.32727 22.3773 4.92727 20.6136 4.92727C19.25 4.92727 18.8318 5.76364 18.5955 6.12727H18.4682V5.01818H17.4318V14.6182ZM22.5227 8.50909C22.5227 10 21.8318 11.1818 20.4864 11.1818C19.1955 11.1818 18.4864 10.0909 18.4864 8.50909C18.4864 6.94545 19.1773 5.89091 20.4864 5.89091C21.85 5.89091 22.5227 7.03636 22.5227 8.50909ZM34.0318 5.09091H35.1227C35.0318 3.61818 33.7773 2.56364 31.9773 2.56364C30.1955 2.56364 28.7955 3.6 28.7955 5.16364C28.7955 6.41818 29.7045 7.16364 31.1591 7.58182L32.3045 7.90909C33.5591 8.27273 34.1591 8.61818 34.1591 9.45455C34.1591 10.4727 33.1773 11.1455 31.8864 11.1455C30.7773 11.1455 29.7955 10.6545 29.7045 9.6H28.5409C28.65 11.1273 29.8864 12.1636 31.8864 12.1636C34.0318 12.1636 35.25 10.9818 35.25 9.45455C35.25 8.16364 34.3955 7.38182 32.6318 6.90909L31.6864 6.65455C30.45 6.32727 29.8864 5.87273 29.8864 5.12727C29.8864 4.21818 30.7045 3.56364 31.9409 3.56364C33.0682 3.56364 33.8682 4.09091 34.0318 5.09091ZM39.8841 5.01818H38.3932V3.52727H37.3205V5.01818H36.2659V6.01818H37.3205V10.2909C37.3205 11.5091 38.3023 12.0909 39.2114 12.0909C39.6114 12.0909 39.8659 12.0182 40.0114 11.9636L39.7932 11C39.7023 11.0182 39.5568 11.0545 39.3205 11.0545C38.8477 11.0545 38.3932 10.9091 38.3932 10V6.01818H39.8841V5.01818ZM44.2557 12.1455C46.1466 12.1455 47.4193 10.7091 47.4193 8.54545C47.4193 6.36364 46.1466 4.92727 44.2557 4.92727C42.3648 4.92727 41.092 6.36364 41.092 8.54545C41.092 10.7091 42.3648 12.1455 44.2557 12.1455ZM44.2557 11.1818C42.8193 11.1818 42.1648 9.94545 42.1648 8.54545C42.1648 7.14545 42.8193 5.89091 44.2557 5.89091C45.692 5.89091 46.3466 7.14545 46.3466 8.54545C46.3466 9.94545 45.692 11.1818 44.2557 11.1818ZM52.9114 5.16364C52.6932 5.03636 52.3477 4.90909 51.9841 4.90909C51.1659 4.90909 50.4023 5.54545 50.2023 6.21818H50.1295V5.01818H49.0568V12H50.1295V8.05455C50.1477 7.10909 50.8023 6.01818 51.9477 6.01818C52.2568 6.01818 52.4386 6.10909 52.5477 6.16364L52.9114 5.16364ZM56.6466 12.1455C58.0648 12.1455 59.1011 11.4364 59.4284 10.3818L58.392 10.0909C58.1193 10.8182 57.5011 11.1818 56.6466 11.1818C55.383 11.1818 54.5875 10.3818 54.4784 8.87273H59.5375V8.41818C59.5375 5.81818 57.992 4.92727 56.5375 4.92727C54.6466 4.92727 53.392 6.41818 53.392 8.56364C53.392 10.7091 54.6284 12.1455 56.6466 12.1455ZM56.5375 5.89091C57.7011 5.89091 58.4466 6.76364 58.4466 7.94545H54.5011C54.6739 6.63636 55.4648 5.89091 56.5375 5.89091Z" transform="translate(55.918 0.299805)" fill="black"/>
<path d="M7.07216 11H2.50852V10.9455L5.01761 8.38182C5.98125 7.4 6.8358 6.27273 6.8358 5.2C6.8358 3.67273 5.67216 2.56364 3.96307 2.56364C1.96307 2.56364 1.16307 4.09091 1.16307 5.6H2.27216C2.27216 4.52727 2.67216 3.49091 3.9267 3.49091C5.05398 3.49091 5.74489 4.30909 5.74489 5.23636C5.74489 6.03636 5.21761 6.65455 4.09034 7.81818L0.817613 11.1818V12H7.07216V11ZM14.746 6.81818C14.746 4.09091 13.6733 2.56364 11.6551 2.56364C9.61875 2.56364 8.52784 4.09091 8.52784 6.81818V7.70909C8.52784 10.4545 9.63693 12.1273 11.6733 12.1273C13.6915 12.1273 14.746 10.4545 14.746 7.70909V6.81818ZM13.6187 7.90909C13.6187 9.65455 13.0006 11.1273 11.6733 11.1273C10.3278 11.1273 9.65511 9.65455 9.65511 7.90909V6.61818C9.65511 4.85455 10.3097 3.56364 11.6551 3.56364C12.9824 3.56364 13.6187 4.85455 13.6187 6.61818V7.90909ZM19.4017 2.69091H18.4563C18.3472 2.8 17.7472 4.07273 16.2926 4.07273V5.01818C17.3653 5.01818 18.129 4.58182 18.2563 4.32727H18.329V12H19.4017V2.69091ZM23.1812 7.69091C23.5994 7.34545 24.1085 7.10909 24.9631 7.10909C25.9267 7.10909 26.9085 7.69091 26.9085 9.10909C26.9085 10.3818 25.9449 11.1636 24.8903 11.1636C23.9449 11.1636 23.2903 10.6727 23.1085 9.67273H22.0176C22.1812 11.3818 23.3449 12.1273 24.8176 12.1273C26.8176 12.1273 27.9812 10.8727 27.9812 9.09091C27.9812 7.27273 26.7812 6.09091 24.9631 6.09091C24.3267 6.09091 23.6903 6.36364 23.3449 6.63636H23.2903L23.6722 3.76364H27.5631V2.69091H22.654L22.1085 7.45455L23.1812 7.69091Z" transform="translate(75.1211 69.0996)" fill="black"/>
</svg>
