<svg width="177" height="86" viewBox="0 0 177 86" fill="black" xmlns="http://www.w3.org/2000/svg">
<path fill-rule="evenodd" clip-rule="evenodd" d="M24.1227 3.59961C21.0798 6.37012 20.0212 11.1992 20.0212 11.1992C20.0212 11.1992 25.4704 10.1602 28.7204 7.19922C31.9743 4.23926 32.3219 0 32.3219 0C32.3219 0 27.1657 0.830078 24.1227 3.59961ZM18.318 13.7998C15.6696 14.8379 13.6188 19.1992 13.6188 19.1992C13.6188 19.1992 18.4938 19.2275 21.1188 18.2002C23.7477 17.1719 27.4196 13.7998 27.4196 13.7998C27.4196 13.7998 20.9704 12.7627 18.318 13.7998ZM7.22038 29.2002C7.22038 29.2002 3.96256 26.168 4.52116 21.4004C5.07975 16.6318 9.12272 13 9.12272 13C9.12272 13 10.568 16.4375 10.0212 21.0996C9.47428 25.7627 7.22038 29.2002 7.22038 29.2002ZM1.01725 35.1992C1.66959 38.252 5.81803 41.5 5.81803 41.5C5.81803 41.5 6.47038 36.1445 5.81803 33.0996C5.16569 30.0547 2.41959 25.5996 2.41959 25.5996C2.41959 25.5996 0.364907 32.1465 1.01725 35.1992ZM7.91959 53.5C7.91959 53.5 3.12272 51.6377 1.41959 48.6006C-0.28353 45.5625 0.0211573 39.4004 0.0211573 39.4004C0.0211573 39.4004 3.99772 42.2256 5.72038 45.2998C7.44303 48.374 7.91959 53.5 7.91959 53.5ZM17.9196 66.3994C18.943 69.0029 23.9196 71.999 23.9196 71.999C23.9196 71.999 23.7477 66.9639 22.6188 64.0996C21.4899 61.2344 18.5173 58.2998 18.5173 58.2998C18.5173 58.2998 16.8923 63.7969 17.9196 66.3994ZM13.8219 64.3008C13.8219 64.3008 12.3219 60.5078 9.52116 57.9004C6.72038 55.293 2.22038 53.5 2.22038 53.5C2.22038 53.5 1.98991 58.4854 5.11881 61.4004C8.25163 64.3145 13.8219 64.3008 13.8219 64.3008ZM17.3219 12C15.568 15.75 12.1227 18.2998 12.1227 18.2998C12.1227 18.2998 11.5016 12.4102 12.7204 9.7998C13.943 7.18945 20.0212 2.7998 20.0212 2.7998C20.0212 2.7998 19.0758 8.25 17.3219 12ZM8.72038 29.9004C8.72038 29.9004 8.361 25.7432 11.1188 23.4004C13.8766 21.0576 19.318 20.9004 19.318 20.9004C19.318 20.9004 17.8883 24.6191 15.318 26.8008C12.7516 28.9814 8.72038 29.9004 8.72038 29.9004ZM8.22038 34C5.97038 37.4922 7.22038 41.5 7.22038 41.5C7.22038 41.5 10.6579 40.3027 12.7204 37.0996C14.7829 33.8965 14.8219 29.7002 14.8219 29.7002C14.8219 29.7002 10.4704 30.5068 8.22038 34ZM9.31803 53C9.31803 53 7.07584 48.8975 8.31803 44.7998C9.56022 40.7012 13.318 39.7998 13.318 39.7998C13.318 39.7998 14.5837 42.7285 13.318 46.8994C12.0563 51.0713 9.31803 53 9.31803 53ZM11.2165 56.3008C11.3571 59.6416 15.0173 63.7002 15.0173 63.7002C15.0173 63.7002 17.0602 59.9443 16.9196 56.5498C16.7751 53.1562 14.4196 49.4004 14.4196 49.4004C14.4196 49.4004 11.0798 52.959 11.2165 56.3008ZM22.9196 72.7998C22.9196 72.7998 19.2165 69.2041 16.1188 67.7998C13.0212 66.3965 7.91959 66 7.91959 66C7.91959 66 9.66178 70.5684 12.818 72C15.9743 73.4307 22.9196 72.7998 22.9196 72.7998ZM24.7751 73.3984C24.6618 73.5898 24.7282 73.834 24.9196 73.9453C27.736 75.5791 30.2985 76.7256 32.611 77.3848C34.9196 78.042 37.9157 78.4795 41.5954 78.6992C41.818 78.7119 42.0055 78.5439 42.0212 78.3232C42.0329 78.1025 41.8649 77.9131 41.6462 77.9004C38.0173 77.6846 35.0758 77.2549 32.8298 76.6152C30.5876 75.9756 28.0837 74.8555 25.3219 73.2529C25.1305 73.1426 24.8844 73.207 24.7751 73.3984Z" fill="black"/>
<path fill-rule="evenodd" clip-rule="evenodd" d="M24.1227 3.59961C21.0798 6.37012 20.0212 11.1992 20.0212 11.1992C20.0212 11.1992 25.4704 10.1602 28.7204 7.19922C31.9743 4.23926 32.3219 0 32.3219 0C32.3219 0 27.1657 0.830078 24.1227 3.59961ZM18.318 13.7998C15.6696 14.8379 13.6188 19.1992 13.6188 19.1992C13.6188 19.1992 18.4938 19.2275 21.1188 18.2002C23.7477 17.1719 27.4196 13.7998 27.4196 13.7998C27.4196 13.7998 20.9704 12.7627 18.318 13.7998ZM7.22038 29.2002C7.22038 29.2002 3.96256 26.168 4.52116 21.4004C5.07975 16.6318 9.12272 13 9.12272 13C9.12272 13 10.568 16.4375 10.0212 21.0996C9.47428 25.7627 7.22038 29.2002 7.22038 29.2002ZM1.01725 35.1992C1.66959 38.252 5.81803 41.5 5.81803 41.5C5.81803 41.5 6.47038 36.1445 5.81803 33.0996C5.16569 30.0547 2.41959 25.5996 2.41959 25.5996C2.41959 25.5996 0.364907 32.1465 1.01725 35.1992ZM7.91959 53.5C7.91959 53.5 3.12272 51.6377 1.41959 48.6006C-0.28353 45.5625 0.0211573 39.4004 0.0211573 39.4004C0.0211573 39.4004 3.99772 42.2256 5.72038 45.2998C7.44303 48.374 7.91959 53.5 7.91959 53.5ZM17.9196 66.3994C18.943 69.0029 23.9196 71.999 23.9196 71.999C23.9196 71.999 23.7477 66.9639 22.6188 64.0996C21.4899 61.2344 18.5173 58.2998 18.5173 58.2998C18.5173 58.2998 16.8923 63.7969 17.9196 66.3994ZM13.8219 64.3008C13.8219 64.3008 12.3219 60.5078 9.52116 57.9004C6.72038 55.293 2.22038 53.5 2.22038 53.5C2.22038 53.5 1.98991 58.4854 5.11881 61.4004C8.25163 64.3145 13.8219 64.3008 13.8219 64.3008ZM17.3219 12C15.568 15.75 12.1227 18.2998 12.1227 18.2998C12.1227 18.2998 11.5016 12.4102 12.7204 9.7998C13.943 7.18945 20.0212 2.7998 20.0212 2.7998C20.0212 2.7998 19.0758 8.25 17.3219 12ZM8.72038 29.9004C8.72038 29.9004 8.361 25.7432 11.1188 23.4004C13.8766 21.0576 19.318 20.9004 19.318 20.9004C19.318 20.9004 17.8883 24.6191 15.318 26.8008C12.7516 28.9814 8.72038 29.9004 8.72038 29.9004ZM8.22038 34C5.97038 37.4922 7.22038 41.5 7.22038 41.5C7.22038 41.5 10.6579 40.3027 12.7204 37.0996C14.7829 33.8965 14.8219 29.7002 14.8219 29.7002C14.8219 29.7002 10.4704 30.5068 8.22038 34ZM9.31803 53C9.31803 53 7.07584 48.8975 8.31803 44.7998C9.56022 40.7012 13.318 39.7998 13.318 39.7998C13.318 39.7998 14.5837 42.7285 13.318 46.8994C12.0563 51.0713 9.31803 53 9.31803 53ZM11.2165 56.3008C11.3571 59.6416 15.0173 63.7002 15.0173 63.7002C15.0173 63.7002 17.0602 59.9443 16.9196 56.5498C16.7751 53.1562 14.4196 49.4004 14.4196 49.4004C14.4196 49.4004 11.0798 52.959 11.2165 56.3008ZM22.9196 72.7998C22.9196 72.7998 19.2165 69.2041 16.1188 67.7998C13.0212 66.3965 7.91959 66 7.91959 66C7.91959 66 9.66178 70.5684 12.818 72C15.9743 73.4307 22.9196 72.7998 22.9196 72.7998ZM24.7751 73.3984C24.6618 73.5898 24.7282 73.834 24.9196 73.9453C27.736 75.5791 30.2985 76.7256 32.611 77.3848C34.9196 78.042 37.9157 78.4795 41.5954 78.6992C41.818 78.7119 42.0055 78.5439 42.0212 78.3232C42.0329 78.1025 41.8649 77.9131 41.6462 77.9004C38.0173 77.6846 35.0758 77.2549 32.8298 76.6152C30.5876 75.9756 28.0837 74.8555 25.3219 73.2529C25.1305 73.1426 24.8844 73.207 24.7751 73.3984Z" transform="translate(176.395) scale(-1 1)" fill="black"/>
<path d="M19.3032 13C21.5489 13 22.6742 11.8989 22.6742 10.3341C22.6742 8.96733 21.8146 8.0642 20.7231 7.93864V7.85653C21.7759 7.61023 22.4183 6.94375 22.4183 5.78949C22.4183 4.24886 21.3219 3.10909 19.0327 3.10909H15.4009V13H19.3032ZM17.3086 4.7125H18.9893C20.1629 4.7125 20.5444 5.31136 20.5444 5.99716C20.5444 6.84716 19.9697 7.29631 18.8879 7.29631H17.3086V4.7125ZM20.81 10.1216C20.81 10.8895 20.3415 11.3966 19.1873 11.3966H17.3086V8.68239H19.2597C20.3029 8.68239 20.81 9.34403 20.81 10.1216ZM30.515 11.3966H25.9945V8.85142H29.8727V7.25284H25.9945V4.7125H30.4908V3.10909H24.0869V13H30.515V11.3966ZM37.2848 5.91989H39.1007C39.0669 4.14744 37.6422 2.97386 35.5848 2.97386C33.5371 2.97386 32.0061 4.08949 32.0061 5.75085C32.0061 7.17557 33.1459 8.07386 34.7541 8.55682L35.2757 8.70653C36.7391 9.15568 37.2993 9.56619 37.2993 10.2568C37.2993 10.9571 36.6618 11.5415 35.5172 11.5415C34.4305 11.5415 33.6482 11.0199 33.5902 10.0057H31.726C31.7598 12.1114 33.4936 13.1497 35.5172 13.1497C37.705 13.1497 39.1442 12.0341 39.1442 10.2423C39.1442 8.71136 38.101 7.89517 36.2416 7.28665L35.7345 7.12244C34.5947 6.75057 33.8655 6.42216 33.8655 5.75085C33.8655 5.06023 34.5609 4.58693 35.5751 4.58693C36.6135 4.58693 37.2027 5.08437 37.2848 5.91989ZM47.9979 3.10909H40.1741V4.7125H43.1394V13H45.0326V4.7125H47.9979V3.10909ZM53.0665 3.10909V13H54.9501V6.22415H55.0322L57.6353 12.8696H59.0069L61.6052 6.25312H61.6873V13H63.5708V3.10909H61.1754L58.3839 10.0009H58.268L55.4668 3.10909H53.0665ZM71.3029 3.10909V9.59034C71.3029 10.7446 70.4384 11.4207 69.26 11.4207C68.0864 11.4207 67.193 10.7446 67.193 9.59034V3.10909H65.2853V9.64347C65.2853 11.894 66.966 13.1497 69.26 13.1497C71.5444 13.1497 73.2106 11.894 73.2106 9.64347V3.10909H71.3029ZM80.1434 5.91989H81.9593C81.9255 4.14744 80.5008 2.97386 78.4434 2.97386C76.3957 2.97386 74.8647 4.08949 74.8647 5.75085C74.8647 7.17557 76.0045 8.07386 77.6127 8.55682L78.1343 8.70653C79.5977 9.15568 80.1579 9.56619 80.1579 10.2568C80.1579 10.9571 79.5204 11.5415 78.3758 11.5415C77.2891 11.5415 76.5068 11.0199 76.4488 10.0057H74.5846C74.6184 12.1114 76.3522 13.1497 78.3758 13.1497C80.5636 13.1497 82.0028 12.0341 82.0028 10.2423C82.0028 8.71136 80.9596 7.89517 79.1002 7.28665L78.5931 7.12244C77.4533 6.75057 76.7241 6.42216 76.7241 5.75085C76.7241 5.06023 77.4195 4.58693 78.4337 4.58693C79.4721 4.58693 80.0613 5.08437 80.1434 5.91989ZM85.4281 3.10909H83.5204V13H85.4281V3.10909ZM95.2611 6.21449C94.7781 4.14744 93.1699 2.97386 91.1898 2.97386C88.6736 2.97386 86.8239 4.87187 86.8239 8.06903C86.8239 11.2517 88.6736 13.1352 91.1898 13.1352C93.1699 13.1352 94.7636 11.9761 95.2514 9.93324L93.3824 9.72557C93.0926 10.846 92.2426 11.4111 91.1898 11.4111C89.7651 11.4111 88.7315 10.3727 88.7315 8.06903C88.7315 5.76051 89.7651 4.69801 91.1898 4.69801C92.2426 4.69801 93.1168 5.27273 93.4065 6.42216L95.2611 6.21449ZM39.67 29L40.3896 26.8943H44.176L44.8956 29H46.9385L43.2922 19.1091H41.2686L37.6223 29H39.67ZM42.2248 21.5142H42.3407L43.6447 25.3295H40.9208L42.2248 21.5142ZM51.7583 25.542C54.1731 25.542 55.2211 24.2526 55.2211 22.3304C55.2211 20.4372 54.2166 19.1091 51.7535 19.1091H48.0927V29H50.0004V25.542H51.7583ZM50.0004 20.7125H51.7535C52.9223 20.7125 53.3328 21.4176 53.3328 22.3304C53.3328 23.2432 52.9223 23.958 51.7583 23.958H50.0004V20.7125ZM60.4177 25.542C62.8325 25.542 63.8805 24.2526 63.8805 22.3304C63.8805 20.4372 62.876 19.1091 60.4129 19.1091H56.7521V29H58.6598V25.542H60.4177ZM58.6598 20.7125H60.4129C61.5816 20.7125 61.9922 21.4176 61.9922 22.3304C61.9922 23.2432 61.5816 23.958 60.4177 23.958H58.6598V20.7125ZM70.6274 21.9199H72.4433C72.4095 20.1474 70.9848 18.9739 68.9274 18.9739C66.8797 18.9739 65.3487 20.0895 65.3487 21.7509C65.3487 23.1756 66.4885 24.0739 68.0967 24.5568L68.6183 24.7065C70.0816 25.1557 70.6419 25.5662 70.6419 26.2568C70.6419 26.9571 70.0044 27.5415 68.8598 27.5415C67.7731 27.5415 66.9907 27.0199 66.9328 26.0057H65.0686C65.1024 28.1114 66.8362 29.1497 68.8598 29.1497C71.0475 29.1497 72.4868 28.0341 72.4868 26.2423C72.4868 24.7114 71.4436 23.8952 69.5842 23.2866L69.0771 23.1224C67.9373 22.7506 67.2081 22.4222 67.2081 21.7509C67.2081 21.0602 67.9035 20.5869 68.9177 20.5869C69.9561 20.5869 70.5453 21.0844 70.6274 21.9199Z" transform="translate(33.5195 24.9004)" fill="black"/>
<path d="M1.90284 12L2.78011 9.50909H6.66193L7.5392 12H8.72102L5.30284 2.69091H4.1392L0.721022 12H1.90284ZM4.66648 4.16364H4.77557L6.30739 8.50909H3.13466L4.66648 4.16364ZM10.0256 14.6182H11.0983V10.9273H11.1892C11.4256 11.3091 11.8801 12.1455 13.2256 12.1455C14.971 12.1455 16.1892 10.7455 16.1892 8.52727C16.1892 6.32727 14.971 4.92727 13.2074 4.92727C11.8437 4.92727 11.4256 5.76364 11.1892 6.12727H11.0619V5.01818H10.0256V14.6182ZM15.1165 8.50909C15.1165 10 14.4256 11.1818 13.0801 11.1818C11.7892 11.1818 11.0801 10.0909 11.0801 8.50909C11.0801 6.94545 11.771 5.89091 13.0801 5.89091C14.4437 5.89091 15.1165 7.03636 15.1165 8.50909ZM17.8256 14.6182H18.8983V10.9273H18.9892C19.2256 11.3091 19.6801 12.1455 21.0256 12.1455C22.771 12.1455 23.9892 10.7455 23.9892 8.52727C23.9892 6.32727 22.771 4.92727 21.0074 4.92727C19.6438 4.92727 19.2256 5.76364 18.9892 6.12727H18.8619V5.01818H17.8256V14.6182ZM22.9165 8.50909C22.9165 10 22.2256 11.1818 20.8801 11.1818C19.5892 11.1818 18.8801 10.0909 18.8801 8.50909C18.8801 6.94545 19.571 5.89091 20.8801 5.89091C22.2438 5.89091 22.9165 7.03636 22.9165 8.50909ZM34.4256 5.09091H35.5165C35.4256 3.61818 34.171 2.56364 32.371 2.56364C30.5892 2.56364 29.1892 3.6 29.1892 5.16364C29.1892 6.41818 30.0983 7.16364 31.5528 7.58182L32.6983 7.90909C33.9528 8.27273 34.5528 8.61818 34.5528 9.45455C34.5528 10.4727 33.571 11.1455 32.2801 11.1455C31.171 11.1455 30.1892 10.6545 30.0983 9.6H28.9347C29.0437 11.1273 30.2801 12.1636 32.2801 12.1636C34.4256 12.1636 35.6437 10.9818 35.6437 9.45455C35.6437 8.16364 34.7892 7.38182 33.0256 6.90909L32.0801 6.65455C30.8437 6.32727 30.2801 5.87273 30.2801 5.12727C30.2801 4.21818 31.0983 3.56364 32.3347 3.56364C33.4619 3.56364 34.2619 4.09091 34.4256 5.09091ZM40.2778 5.01818H38.7869V3.52727H37.7142V5.01818H36.6597V6.01818H37.7142V10.2909C37.7142 11.5091 38.696 12.0909 39.6051 12.0909C40.0051 12.0909 40.2597 12.0182 40.4051 11.9636L40.1869 11C40.096 11.0182 39.9506 11.0545 39.7142 11.0545C39.2415 11.0545 38.7869 10.9091 38.7869 10V6.01818H40.2778V5.01818ZM44.6494 12.1455C46.5403 12.1455 47.8131 10.7091 47.8131 8.54545C47.8131 6.36364 46.5403 4.92727 44.6494 4.92727C42.7585 4.92727 41.4858 6.36364 41.4858 8.54545C41.4858 10.7091 42.7585 12.1455 44.6494 12.1455ZM44.6494 11.1818C43.2131 11.1818 42.5585 9.94545 42.5585 8.54545C42.5585 7.14545 43.2131 5.89091 44.6494 5.89091C46.0858 5.89091 46.7403 7.14545 46.7403 8.54545C46.7403 9.94545 46.0858 11.1818 44.6494 11.1818ZM53.3051 5.16364C53.0869 5.03636 52.7415 4.90909 52.3778 4.90909C51.5597 4.90909 50.796 5.54545 50.596 6.21818H50.5233V5.01818H49.4506V12H50.5233V8.05455C50.5415 7.10909 51.196 6.01818 52.3415 6.01818C52.6506 6.01818 52.8324 6.10909 52.9415 6.16364L53.3051 5.16364ZM57.0403 12.1455C58.4585 12.1455 59.4949 11.4364 59.8222 10.3818L58.7858 10.0909C58.5131 10.8182 57.8949 11.1818 57.0403 11.1818C55.7767 11.1818 54.9813 10.3818 54.8722 8.87273H59.9313V8.41818C59.9313 5.81818 58.3858 4.92727 56.9313 4.92727C55.0403 4.92727 53.7858 6.41818 53.7858 8.56364C53.7858 10.7091 55.0222 12.1455 57.0403 12.1455ZM56.9313 5.89091C58.0949 5.89091 58.8403 6.76364 58.8403 7.94545H54.8949C55.0676 6.63636 55.8585 5.89091 56.9313 5.89091Z" transform="translate(57.918 0.299805)" fill="black"/>
<path d="M7.07216 11H2.50852V10.9455L5.01761 8.38182C5.98125 7.4 6.8358 6.27273 6.8358 5.2C6.8358 3.67273 5.67216 2.56364 3.96307 2.56364C1.96307 2.56364 1.16307 4.09091 1.16307 5.6H2.27216C2.27216 4.52727 2.67216 3.49091 3.9267 3.49091C5.05398 3.49091 5.74489 4.30909 5.74489 5.23636C5.74489 6.03636 5.21761 6.65455 4.09034 7.81818L0.817613 11.1818V12H7.07216V11ZM14.746 6.81818C14.746 4.09091 13.6733 2.56364 11.6551 2.56364C9.61875 2.56364 8.52784 4.09091 8.52784 6.81818V7.70909C8.52784 10.4545 9.63693 12.1273 11.6733 12.1273C13.6915 12.1273 14.746 10.4545 14.746 7.70909V6.81818ZM13.6187 7.90909C13.6187 9.65455 13.0006 11.1273 11.6733 11.1273C10.3278 11.1273 9.65511 9.65455 9.65511 7.90909V6.61818C9.65511 4.85455 10.3097 3.56364 11.6551 3.56364C12.9824 3.56364 13.6187 4.85455 13.6187 6.61818V7.90909ZM19.4017 2.69091H18.4563C18.3472 2.8 17.7472 4.07273 16.2926 4.07273V5.01818C17.3653 5.01818 18.129 4.58182 18.2563 4.32727H18.329V12H19.4017V2.69091ZM26.6903 5.01818H27.7631C27.4358 3.41818 26.5267 2.54545 25.054 2.54545C22.9267 2.54545 21.9267 4.36364 21.9267 7.23636V7.54545C21.9267 10.5273 22.9267 12.1273 24.9631 12.1273C26.8903 12.1273 27.9085 10.6909 27.9085 9.12727C27.9085 7.58182 26.8903 6.14545 25.1085 6.14545C24.3812 6.14545 23.5903 6.38636 23.0403 6.99091C23.104 4.19091 24.104 3.56364 25.0722 3.56364C26.1631 3.56364 26.4722 4.36364 26.6903 5.01818ZM25.0903 7.14545C26.3631 7.14545 26.8358 8.09091 26.8358 9.12727C26.8358 10.3818 26.1267 11.1455 25.054 11.1455C24.0449 11.1455 23.1449 10.4682 23.1267 9.07727C23.1449 7.91364 23.9403 7.14545 25.0903 7.14545Z" transform="translate(74.6211 69.0996)" fill="black"/>
</svg>
