<svg width="177" height="86" viewBox="0 0 177 86" fill="none" xmlns="http://www.w3.org/2000/svg">
<path fill-rule="evenodd" clip-rule="evenodd" d="M24.1227 3.59961C21.0798 6.37012 20.0212 11.1992 20.0212 11.1992C20.0212 11.1992 25.4704 10.1602 28.7204 7.19922C31.9743 4.23926 32.3219 0 32.3219 0C32.3219 0 27.1657 0.830078 24.1227 3.59961ZM18.318 13.7998C15.6696 14.8379 13.6188 19.1992 13.6188 19.1992C13.6188 19.1992 18.4938 19.2275 21.1188 18.2002C23.7477 17.1719 27.4196 13.7998 27.4196 13.7998C27.4196 13.7998 20.9704 12.7627 18.318 13.7998ZM7.22038 29.2002C7.22038 29.2002 3.96256 26.168 4.52116 21.4004C5.07975 16.6318 9.12272 13 9.12272 13C9.12272 13 10.568 16.4375 10.0212 21.0996C9.47428 25.7627 7.22038 29.2002 7.22038 29.2002ZM1.01725 35.1992C1.66959 38.252 5.81803 41.5 5.81803 41.5C5.81803 41.5 6.47038 36.1445 5.81803 33.0996C5.16569 30.0547 2.41959 25.5996 2.41959 25.5996C2.41959 25.5996 0.364907 32.1465 1.01725 35.1992ZM7.91959 53.5C7.91959 53.5 3.12272 51.6377 1.41959 48.6006C-0.28353 45.5625 0.0211573 39.4004 0.0211573 39.4004C0.0211573 39.4004 3.99772 42.2256 5.72038 45.2998C7.44303 48.374 7.91959 53.5 7.91959 53.5ZM17.9196 66.3994C18.943 69.0029 23.9196 71.999 23.9196 71.999C23.9196 71.999 23.7477 66.9639 22.6188 64.0996C21.4899 61.2344 18.5173 58.2998 18.5173 58.2998C18.5173 58.2998 16.8923 63.7969 17.9196 66.3994ZM13.8219 64.3008C13.8219 64.3008 12.3219 60.5078 9.52116 57.9004C6.72038 55.293 2.22038 53.5 2.22038 53.5C2.22038 53.5 1.98991 58.4854 5.11881 61.4004C8.25163 64.3145 13.8219 64.3008 13.8219 64.3008ZM17.3219 12C15.568 15.75 12.1227 18.2998 12.1227 18.2998C12.1227 18.2998 11.5016 12.4102 12.7204 9.7998C13.943 7.18945 20.0212 2.7998 20.0212 2.7998C20.0212 2.7998 19.0758 8.25 17.3219 12ZM8.72038 29.9004C8.72038 29.9004 8.361 25.7432 11.1188 23.4004C13.8766 21.0576 19.318 20.9004 19.318 20.9004C19.318 20.9004 17.8883 24.6191 15.318 26.8008C12.7516 28.9814 8.72038 29.9004 8.72038 29.9004ZM8.22038 34C5.97038 37.4922 7.22038 41.5 7.22038 41.5C7.22038 41.5 10.6579 40.3027 12.7204 37.0996C14.7829 33.8965 14.8219 29.7002 14.8219 29.7002C14.8219 29.7002 10.4704 30.5068 8.22038 34ZM9.31803 53C9.31803 53 7.07584 48.8975 8.31803 44.7998C9.56022 40.7012 13.318 39.7998 13.318 39.7998C13.318 39.7998 14.5837 42.7285 13.318 46.8994C12.0563 51.0713 9.31803 53 9.31803 53ZM11.2165 56.3008C11.3571 59.6416 15.0173 63.7002 15.0173 63.7002C15.0173 63.7002 17.0602 59.9443 16.9196 56.5498C16.7751 53.1562 14.4196 49.4004 14.4196 49.4004C14.4196 49.4004 11.0798 52.959 11.2165 56.3008ZM22.9196 72.7998C22.9196 72.7998 19.2165 69.2041 16.1188 67.7998C13.0212 66.3965 7.91959 66 7.91959 66C7.91959 66 9.66178 70.5684 12.818 72C15.9743 73.4307 22.9196 72.7998 22.9196 72.7998ZM24.7751 73.3984C24.6618 73.5898 24.7282 73.834 24.9196 73.9453C27.736 75.5791 30.2985 76.7256 32.611 77.3848C34.9196 78.042 37.9157 78.4795 41.5954 78.6992C41.818 78.7119 42.0055 78.5439 42.0212 78.3232C42.0329 78.1025 41.8649 77.9131 41.6462 77.9004C38.0173 77.6846 35.0758 77.2549 32.8298 76.6152C30.5876 75.9756 28.0837 74.8555 25.3219 73.2529C25.1305 73.1426 24.8844 73.207 24.7751 73.3984Z" fill="#444444"/>
<path fill-rule="evenodd" clip-rule="evenodd" d="M24.1227 3.59961C21.0798 6.37012 20.0212 11.1992 20.0212 11.1992C20.0212 11.1992 25.4704 10.1602 28.7204 7.19922C31.9743 4.23926 32.3219 0 32.3219 0C32.3219 0 27.1657 0.830078 24.1227 3.59961ZM18.318 13.7998C15.6696 14.8379 13.6188 19.1992 13.6188 19.1992C13.6188 19.1992 18.4938 19.2275 21.1188 18.2002C23.7477 17.1719 27.4196 13.7998 27.4196 13.7998C27.4196 13.7998 20.9704 12.7627 18.318 13.7998ZM7.22038 29.2002C7.22038 29.2002 3.96256 26.168 4.52116 21.4004C5.07975 16.6318 9.12272 13 9.12272 13C9.12272 13 10.568 16.4375 10.0212 21.0996C9.47428 25.7627 7.22038 29.2002 7.22038 29.2002ZM1.01725 35.1992C1.66959 38.252 5.81803 41.5 5.81803 41.5C5.81803 41.5 6.47038 36.1445 5.81803 33.0996C5.16569 30.0547 2.41959 25.5996 2.41959 25.5996C2.41959 25.5996 0.364907 32.1465 1.01725 35.1992ZM7.91959 53.5C7.91959 53.5 3.12272 51.6377 1.41959 48.6006C-0.28353 45.5625 0.0211573 39.4004 0.0211573 39.4004C0.0211573 39.4004 3.99772 42.2256 5.72038 45.2998C7.44303 48.374 7.91959 53.5 7.91959 53.5ZM17.9196 66.3994C18.943 69.0029 23.9196 71.999 23.9196 71.999C23.9196 71.999 23.7477 66.9639 22.6188 64.0996C21.4899 61.2344 18.5173 58.2998 18.5173 58.2998C18.5173 58.2998 16.8923 63.7969 17.9196 66.3994ZM13.8219 64.3008C13.8219 64.3008 12.3219 60.5078 9.52116 57.9004C6.72038 55.293 2.22038 53.5 2.22038 53.5C2.22038 53.5 1.98991 58.4854 5.11881 61.4004C8.25163 64.3145 13.8219 64.3008 13.8219 64.3008ZM17.3219 12C15.568 15.75 12.1227 18.2998 12.1227 18.2998C12.1227 18.2998 11.5016 12.4102 12.7204 9.7998C13.943 7.18945 20.0212 2.7998 20.0212 2.7998C20.0212 2.7998 19.0758 8.25 17.3219 12ZM8.72038 29.9004C8.72038 29.9004 8.361 25.7432 11.1188 23.4004C13.8766 21.0576 19.318 20.9004 19.318 20.9004C19.318 20.9004 17.8883 24.6191 15.318 26.8008C12.7516 28.9814 8.72038 29.9004 8.72038 29.9004ZM8.22038 34C5.97038 37.4922 7.22038 41.5 7.22038 41.5C7.22038 41.5 10.6579 40.3027 12.7204 37.0996C14.7829 33.8965 14.8219 29.7002 14.8219 29.7002C14.8219 29.7002 10.4704 30.5068 8.22038 34ZM9.31803 53C9.31803 53 7.07584 48.8975 8.31803 44.7998C9.56022 40.7012 13.318 39.7998 13.318 39.7998C13.318 39.7998 14.5837 42.7285 13.318 46.8994C12.0563 51.0713 9.31803 53 9.31803 53ZM11.2165 56.3008C11.3571 59.6416 15.0173 63.7002 15.0173 63.7002C15.0173 63.7002 17.0602 59.9443 16.9196 56.5498C16.7751 53.1562 14.4196 49.4004 14.4196 49.4004C14.4196 49.4004 11.0798 52.959 11.2165 56.3008ZM22.9196 72.7998C22.9196 72.7998 19.2165 69.2041 16.1188 67.7998C13.0212 66.3965 7.91959 66 7.91959 66C7.91959 66 9.66178 70.5684 12.818 72C15.9743 73.4307 22.9196 72.7998 22.9196 72.7998ZM24.7751 73.3984C24.6618 73.5898 24.7282 73.834 24.9196 73.9453C27.736 75.5791 30.2985 76.7256 32.611 77.3848C34.9196 78.042 37.9157 78.4795 41.5954 78.6992C41.818 78.7119 42.0055 78.5439 42.0212 78.3232C42.0329 78.1025 41.8649 77.9131 41.6462 77.9004C38.0173 77.6846 35.0758 77.2549 32.8298 76.6152C30.5876 75.9756 28.0837 74.8555 25.3219 73.2529C25.1305 73.1426 24.8844 73.207 24.7751 73.3984Z" transform="translate(176.395) scale(-1 1)" fill="#444444"/>
<path d="M27.4464 7.83239H23.52V9.28608H25.5919C25.5919 10.5852 24.6308 11.4111 23.3703 11.4111C21.9697 11.4111 20.8975 10.4017 20.8975 8.06903C20.8975 5.73636 21.9552 4.69801 23.3172 4.69801C24.2782 4.69801 25.1234 5.20994 25.4711 6.31591L27.3981 6.10824C26.7896 4.09432 25.2345 2.97386 23.3172 2.97386C20.8396 2.97386 18.9899 4.84773 18.9899 8.06903C18.9899 11.2759 20.8541 13.1352 23.3703 13.1352C25.6402 13.1352 27.4464 11.6139 27.4464 9.28608V7.83239ZM30.3333 13L31.0529 10.8943H34.8392L35.5588 13H37.6017L33.9554 3.10909H31.9319L28.2855 13H30.3333ZM32.8881 5.5142H33.004L34.308 9.32955H31.5841L32.8881 5.5142ZM38.756 3.10909V13H40.6395V6.22415H40.7216L43.3248 12.8696H44.6963L47.2946 6.25312H47.3767V13H49.2603V3.10909H46.8648L44.0733 10.0009H43.9574L41.1563 3.10909H38.756ZM57.3498 11.3966H52.8293V8.85142H56.7074V7.25284H52.8293V4.7125H57.3256V3.10909H50.9216V13H57.3498V11.3966ZM64.1196 5.91989H65.9355C65.9017 4.14744 64.477 2.97386 62.4196 2.97386C60.3718 2.97386 58.8409 4.08949 58.8409 5.75085C58.8409 7.17557 59.9806 8.07386 61.5889 8.55682L62.1105 8.70653C63.5738 9.15568 64.1341 9.56619 64.1341 10.2568C64.1341 10.9571 63.4966 11.5415 62.352 11.5415C61.2653 11.5415 60.4829 11.0199 60.425 10.0057H58.5608C58.5946 12.1114 60.3284 13.1497 62.352 13.1497C64.5397 13.1497 65.9789 12.0341 65.9789 10.2423C65.9789 8.71136 64.9358 7.89517 63.0764 7.28665L62.5693 7.12244C61.4295 6.75057 60.7002 6.42216 60.7002 5.75085C60.7002 5.06023 61.3957 4.58693 62.4099 4.58693C63.4483 4.58693 64.0375 5.08437 64.1196 5.91989ZM72.6039 3.10909H70.8363L73.4056 13H75.3519L77.1678 6.26278H77.2451L79.061 13H81.0073L83.5814 3.10909H81.809L80.0221 10.2182H79.9351L78.0951 3.10909H76.3226L74.4777 10.2037H74.3956L72.6039 3.10909ZM91.3099 11.3966H86.7895V8.85142H90.6676V7.25284H86.7895V4.7125H91.2858V3.10909H84.8818V13H91.3099V11.3966ZM16.7127 27.3966H12.5207V19.1091H10.613V29H16.7127V27.3966ZM26.4093 24.069C26.4093 20.8477 24.5451 18.9739 22.0675 18.9739C19.5803 18.9739 17.7016 20.8477 17.7016 24.069C17.7016 27.2759 19.5803 29.1352 22.0675 29.1352C24.5451 29.1352 26.4093 27.2759 26.4093 24.069ZM24.5016 24.069C24.5016 26.4017 23.4729 27.4111 22.0675 27.4111C20.6669 27.4111 19.6093 26.4017 19.6093 24.069C19.6093 21.7364 20.6669 20.698 22.0675 20.698C23.4729 20.698 24.5016 21.7364 24.5016 24.069ZM28.6296 19.1091H26.6254L30.2717 29H32.2953L35.9416 19.1091H33.9373L31.3439 26.5949H31.2279L28.6296 19.1091ZM43.524 27.3966H39.0035V24.8514H42.8816V23.2528H39.0035V20.7125H43.4998V19.1091H37.0958V29H43.524V27.3966ZM55.3044 27.3966H50.784V24.8514H54.6621V23.2528H50.784V20.7125H55.2803V19.1091H48.8763V29H55.3044V27.3966ZM62.9291 19.1091V25.5903C62.9291 26.7446 62.0646 27.4207 60.8862 27.4207C59.7126 27.4207 58.8191 26.7446 58.8191 25.5903V19.1091H56.9115V25.6435C56.9115 27.894 58.5922 29.1497 60.8862 29.1497C63.1706 29.1497 64.8368 27.894 64.8368 25.6435V19.1091H62.9291ZM71.9531 29H74.0684L72.0207 24.9335C73.0156 24.4361 73.6821 23.5523 73.6821 22.1807C73.6821 20.3406 72.5423 19.1091 70.2 19.1091H66.5537V29H68.4613V25.3006H70.1179L71.9531 29ZM68.4613 20.7125H70.2C71.3156 20.7125 71.7937 21.3452 71.7937 22.2193C71.7937 23.1659 71.2528 23.702 70.1565 23.702H68.4613V20.7125ZM83.3991 24.069C83.3991 20.8477 81.5349 18.9739 79.0573 18.9739C76.5701 18.9739 74.6914 20.8477 74.6914 24.069C74.6914 27.2759 76.5701 29.1352 79.0573 29.1352C81.5349 29.1352 83.3991 27.2759 83.3991 24.069ZM81.4914 24.069C81.4914 26.4017 80.4627 27.4111 79.0573 27.4111C77.6568 27.4111 76.5991 26.4017 76.5991 24.069C76.5991 21.7364 77.6568 20.698 79.0573 20.698C80.4627 20.698 81.4914 21.7364 81.4914 24.069ZM88.4677 25.542C90.8825 25.542 91.9305 24.2526 91.9305 22.3304C91.9305 20.4372 90.926 19.1091 88.4629 19.1091H84.8021V29H86.7098V25.542H88.4677ZM86.7098 20.7125H88.4629C89.6316 20.7125 90.0422 21.4176 90.0422 22.3304C90.0422 23.2432 89.6316 23.958 88.4677 23.958H86.7098V20.7125ZM99.8896 27.3966H95.3691V24.8514H99.2473V23.2528H95.3691V20.7125H99.8655V19.1091H93.4615V29H99.8896V27.3966Z" transform="translate(33.5195 25.9004)" fill="#444444"/>
<path d="M1.50909 12L2.38636 9.50909H6.26818L7.14545 12H8.32727L4.90909 2.69091H3.74545L0.327273 12H1.50909ZM4.27273 4.16364H4.38182L5.91364 8.50909H2.74091L4.27273 4.16364ZM9.63182 14.6182H10.7045V10.9273H10.7955C11.0318 11.3091 11.4864 12.1455 12.8318 12.1455C14.5773 12.1455 15.7955 10.7455 15.7955 8.52727C15.7955 6.32727 14.5773 4.92727 12.8136 4.92727C11.45 4.92727 11.0318 5.76364 10.7955 6.12727H10.6682V5.01818H9.63182V14.6182ZM14.7227 8.50909C14.7227 10 14.0318 11.1818 12.6864 11.1818C11.3955 11.1818 10.6864 10.0909 10.6864 8.50909C10.6864 6.94545 11.3773 5.89091 12.6864 5.89091C14.05 5.89091 14.7227 7.03636 14.7227 8.50909ZM17.4318 14.6182H18.5045V10.9273H18.5955C18.8318 11.3091 19.2864 12.1455 20.6318 12.1455C22.3773 12.1455 23.5955 10.7455 23.5955 8.52727C23.5955 6.32727 22.3773 4.92727 20.6136 4.92727C19.25 4.92727 18.8318 5.76364 18.5955 6.12727H18.4682V5.01818H17.4318V14.6182ZM22.5227 8.50909C22.5227 10 21.8318 11.1818 20.4864 11.1818C19.1955 11.1818 18.4864 10.0909 18.4864 8.50909C18.4864 6.94545 19.1773 5.89091 20.4864 5.89091C21.85 5.89091 22.5227 7.03636 22.5227 8.50909ZM34.0318 5.09091H35.1227C35.0318 3.61818 33.7773 2.56364 31.9773 2.56364C30.1955 2.56364 28.7955 3.6 28.7955 5.16364C28.7955 6.41818 29.7045 7.16364 31.1591 7.58182L32.3045 7.90909C33.5591 8.27273 34.1591 8.61818 34.1591 9.45455C34.1591 10.4727 33.1773 11.1455 31.8864 11.1455C30.7773 11.1455 29.7955 10.6545 29.7045 9.6H28.5409C28.65 11.1273 29.8864 12.1636 31.8864 12.1636C34.0318 12.1636 35.25 10.9818 35.25 9.45455C35.25 8.16364 34.3955 7.38182 32.6318 6.90909L31.6864 6.65455C30.45 6.32727 29.8864 5.87273 29.8864 5.12727C29.8864 4.21818 30.7045 3.56364 31.9409 3.56364C33.0682 3.56364 33.8682 4.09091 34.0318 5.09091ZM39.8841 5.01818H38.3932V3.52727H37.3205V5.01818H36.2659V6.01818H37.3205V10.2909C37.3205 11.5091 38.3023 12.0909 39.2114 12.0909C39.6114 12.0909 39.8659 12.0182 40.0114 11.9636L39.7932 11C39.7023 11.0182 39.5568 11.0545 39.3205 11.0545C38.8477 11.0545 38.3932 10.9091 38.3932 10V6.01818H39.8841V5.01818ZM44.2557 12.1455C46.1466 12.1455 47.4193 10.7091 47.4193 8.54545C47.4193 6.36364 46.1466 4.92727 44.2557 4.92727C42.3648 4.92727 41.092 6.36364 41.092 8.54545C41.092 10.7091 42.3648 12.1455 44.2557 12.1455ZM44.2557 11.1818C42.8193 11.1818 42.1648 9.94545 42.1648 8.54545C42.1648 7.14545 42.8193 5.89091 44.2557 5.89091C45.692 5.89091 46.3466 7.14545 46.3466 8.54545C46.3466 9.94545 45.692 11.1818 44.2557 11.1818ZM52.9114 5.16364C52.6932 5.03636 52.3477 4.90909 51.9841 4.90909C51.1659 4.90909 50.4023 5.54545 50.2023 6.21818H50.1295V5.01818H49.0568V12H50.1295V8.05455C50.1477 7.10909 50.8023 6.01818 51.9477 6.01818C52.2568 6.01818 52.4386 6.10909 52.5477 6.16364L52.9114 5.16364ZM56.6466 12.1455C58.0648 12.1455 59.1011 11.4364 59.4284 10.3818L58.392 10.0909C58.1193 10.8182 57.5011 11.1818 56.6466 11.1818C55.383 11.1818 54.5875 10.3818 54.4784 8.87273H59.5375V8.41818C59.5375 5.81818 57.992 4.92727 56.5375 4.92727C54.6466 4.92727 53.392 6.41818 53.392 8.56364C53.392 10.7091 54.6284 12.1455 56.6466 12.1455ZM56.5375 5.89091C57.7011 5.89091 58.4466 6.76364 58.4466 7.94545H54.5011C54.6739 6.63636 55.4648 5.89091 56.5375 5.89091Z" transform="translate(55.918 0.299805)" fill="#5F5F5F"/>
<path d="M7.07216 11H2.50852V10.9455L5.01761 8.38182C5.98125 7.4 6.8358 6.27273 6.8358 5.2C6.8358 3.67273 5.67216 2.56364 3.96307 2.56364C1.96307 2.56364 1.16307 4.09091 1.16307 5.6H2.27216C2.27216 4.52727 2.67216 3.49091 3.9267 3.49091C5.05398 3.49091 5.74489 4.30909 5.74489 5.23636C5.74489 6.03636 5.21761 6.65455 4.09034 7.81818L0.817613 11.1818V12H7.07216V11ZM14.746 6.81818C14.746 4.09091 13.6733 2.56364 11.6551 2.56364C9.61875 2.56364 8.52784 4.09091 8.52784 6.81818V7.70909C8.52784 10.4545 9.63693 12.1273 11.6733 12.1273C13.6915 12.1273 14.746 10.4545 14.746 7.70909V6.81818ZM13.6187 7.90909C13.6187 9.65455 13.0006 11.1273 11.6733 11.1273C10.3278 11.1273 9.65511 9.65455 9.65511 7.90909V6.61818C9.65511 4.85455 10.3097 3.56364 11.6551 3.56364C12.9824 3.56364 13.6187 4.85455 13.6187 6.61818V7.90909ZM19.4017 2.69091H18.4563C18.3472 2.8 17.7472 4.07273 16.2926 4.07273V5.01818C17.3653 5.01818 18.129 4.58182 18.2563 4.32727H18.329V12H19.4017V2.69091ZM26.6903 5.01818H27.7631C27.4358 3.41818 26.5267 2.54545 25.054 2.54545C22.9267 2.54545 21.9267 4.36364 21.9267 7.23636V7.54545C21.9267 10.5273 22.9267 12.1273 24.9631 12.1273C26.8903 12.1273 27.9085 10.6909 27.9085 9.12727C27.9085 7.58182 26.8903 6.14545 25.1085 6.14545C24.3812 6.14545 23.5903 6.38636 23.0403 6.99091C23.104 4.19091 24.104 3.56364 25.0722 3.56364C26.1631 3.56364 26.4722 4.36364 26.6903 5.01818ZM25.0903 7.14545C26.3631 7.14545 26.8358 8.09091 26.8358 9.12727C26.8358 10.3818 26.1267 11.1455 25.054 11.1455C24.0449 11.1455 23.1449 10.4682 23.1267 9.07727C23.1449 7.91364 23.9403 7.14545 25.0903 7.14545Z" transform="translate(75.1211 69.0996)" fill="#5F5F5F"/>
</svg>
